<svg width="51" height="62" viewBox="0 0 51 62" fill="none" xmlns="http://www.w3.org/2000/svg">
<g clip-path="url(#clip0_44_7459)">
<mask id="mask0_44_7459" style="mask-type:luminance" maskUnits="userSpaceOnUse" x="0" y="0" width="51" height="62">
<path d="M51 0H0V62H51V0Z" fill="white"/>
</mask>
<g mask="url(#mask0_44_7459)">
<path d="M41.1658 35.593C41.1658 35.593 40.8573 37.5021 40.5316 37.7999C39.6583 38.5987 37.35 37.9165 37.35 37.9165L41.1658 35.593Z" fill="#231F20"/>
<path d="M35.3662 27.8042C35.3662 27.8042 40.4077 32.5961 40.4077 33.8099C40.4077 35.0231 40.0094 37.9949 40.0094 37.9949L37.2233 37.7874L32.3107 27.3516L35.3662 27.8042Z" fill="#6C6E70"/>
<path d="M9.32507 24.5706C9.32507 24.5706 11.3913 26.4835 14.5057 26.5913C16.6515 26.6653 24.2562 27.1217 24.2562 27.1217L31.5689 26.4847L10.8737 23.2095L9.32507 24.5706Z" fill="#6C6E70"/>
<path d="M8.20813 23.2624C8.25269 23.4348 8.32947 23.717 8.50017 24.043C8.75519 24.5326 9.22753 25.1245 10.0954 25.6443C10.9633 26.1659 12.2192 26.6192 14.0503 26.875L14.1655 26.186C11.8299 25.8593 10.5733 25.2123 9.88086 24.6041C9.53328 24.2994 9.32351 24.0016 9.18709 23.742C9.05135 23.4819 8.99102 23.263 8.94989 23.1025L8.20813 23.2624Z" fill="#231F20"/>
<path d="M0.835339 27.114L0.320496 27.8846C4.95888 37.6596 12.3566 60.4234 35.3092 61.9199C35.6877 61.3939 35.6623 61.3964 35.6623 61.3964L3.26696 27.7523L0.835339 27.114Z" fill="#231F20"/>
<path d="M37.983 32.3335C36.8717 32.3348 35.7481 32.3592 34.6094 32.4087C33.4529 32.4589 32.2806 32.5341 31.0926 32.6357C29.8833 32.7398 28.6568 32.8708 27.4119 33.0313C26.1436 33.1943 24.8562 33.3874 23.5475 33.6125C22.2127 33.8426 20.8691 34.1028 19.5158 34.3943C18.1338 34.6928 16.7414 35.0232 15.3381 35.3868C13.9033 35.758 12.4561 36.1649 10.9966 36.6075C9.50208 37.0596 7.9932 37.5492 6.46924 38.0777C6.75511 38.6464 7.04098 39.205 7.32686 39.7524C7.61478 40.3028 7.90271 40.8414 8.18995 41.3674C8.47857 41.8953 8.76718 42.4101 9.05511 42.911C9.34372 43.4132 9.63234 43.901 9.91889 44.3725C11.2619 46.5769 12.8729 48.622 14.7026 50.4628C16.5412 52.3136 18.5814 53.9387 20.7656 55.3005C22.9387 56.6547 25.2326 57.7343 27.5874 58.5099C29.908 59.2742 32.2662 59.7356 34.6039 59.8735C34.6375 59.8754 34.6711 59.8779 34.7047 59.8798C34.739 59.8811 34.7726 59.8829 34.8055 59.8848C34.8391 59.8861 34.8727 59.888 34.9063 59.8898C34.9398 59.8911 34.9734 59.893 35.007 59.8942C36.5337 58.2409 37.7561 56.4497 38.6829 54.5713C39.5755 52.7625 40.198 50.8672 40.5565 48.928C40.9041 47.0527 41.0062 45.1298 40.8698 43.1913C40.7375 41.3085 40.3783 39.4031 39.7949 37.5028C39.6728 37.1047 39.5419 36.6959 39.4034 36.2777C39.2663 35.8614 39.121 35.437 38.9681 35.0031C38.8166 34.5718 38.6582 34.1323 38.493 33.6865C38.3292 33.2426 38.1585 32.7912 37.983 32.3335ZM36.2609 38.0608C36.1306 38.0382 36.0072 37.9918 35.8934 37.9298C35.7796 37.8677 35.6761 37.7906 35.5836 37.7072C35.4917 37.6244 35.4115 37.5342 35.3457 37.4464C35.2792 37.3592 35.2278 37.274 35.1914 37.2006C35.1318 37.0777 35.1037 36.9555 35.0962 36.8389C35.0893 36.7229 35.1023 36.6125 35.1249 36.5141C35.1476 36.4163 35.1791 36.3304 35.2093 36.2621C35.2394 36.1937 35.2675 36.1436 35.2833 36.116C35.2998 36.0896 35.2956 36.0577 35.2812 36.0244C35.2669 35.9925 35.2415 35.9592 35.2141 35.9291C35.1873 35.899 35.1579 35.8727 35.1352 35.8539L35.0975 35.8232L35.0653 35.7937C35.0461 35.7749 35.0187 35.7479 34.9885 35.7153C34.9577 35.6821 34.9248 35.6439 34.8939 35.6019C34.8624 35.5599 34.8336 35.5147 34.8103 35.4677C34.7877 35.4213 34.7575 35.3454 34.7342 35.2489C34.7116 35.153 34.6951 35.0357 34.7006 34.9059C34.7054 34.7761 34.7321 34.6338 34.7938 34.4877C34.8548 34.3417 34.9515 34.1918 35.0962 34.0457C35.0962 34.0457 35.0927 34.0739 35.09 34.121C35.0866 34.168 35.0838 34.2338 35.0859 34.3091C35.0872 34.3843 35.0948 34.4683 35.1092 34.5517C35.1243 34.6351 35.1483 34.7178 35.1839 34.7906C35.2195 34.8633 35.2682 34.9354 35.3258 35.0056C35.3827 35.0765 35.4499 35.1448 35.5212 35.21C35.5918 35.2758 35.6679 35.3385 35.744 35.3975C35.8208 35.4564 35.8982 35.5116 35.9723 35.5617C36.0463 35.6119 36.1334 35.674 36.2252 35.7448C36.3185 35.8169 36.4158 35.8978 36.5118 35.9887C36.6078 36.0796 36.7024 36.1793 36.7874 36.2878C36.8738 36.3956 36.9512 36.5122 37.0122 36.6357C37.0739 36.7599 37.1267 36.899 37.161 37.042C37.1946 37.1843 37.209 37.3298 37.1946 37.4652C37.1795 37.6013 37.135 37.7266 37.0499 37.8282C36.9649 37.9298 36.8395 38.0082 36.6633 38.0495C36.6277 38.0577 36.5934 38.0633 36.5591 38.0677C36.5248 38.0721 36.4912 38.0746 36.4576 38.0752C36.424 38.0759 36.3905 38.0752 36.3582 38.0727C36.3253 38.0702 36.2931 38.0658 36.2609 38.0608ZM31.3627 39.1749C31.2235 39.1524 31.0926 39.1041 30.9733 39.0401C30.854 38.9762 30.7457 38.8959 30.6497 38.8094C30.5551 38.7223 30.4728 38.6282 30.4057 38.5373C30.3385 38.4458 30.2864 38.3567 30.2507 38.2796C30.1918 38.1511 30.1671 38.0226 30.1637 37.9009C30.1609 37.7787 30.1794 37.6633 30.2075 37.5599C30.2363 37.4577 30.2734 37.3668 30.309 37.2953C30.344 37.2238 30.3769 37.1712 30.3954 37.1429C30.4132 37.1141 30.4105 37.0809 30.3961 37.0464C30.3817 37.0119 30.3556 36.9768 30.3275 36.9461C30.2994 36.9141 30.2686 36.8871 30.2452 36.8664L30.2062 36.8345L30.1726 36.8044C30.1527 36.7849 30.1246 36.7567 30.0937 36.7229C30.0622 36.6884 30.0286 36.6483 29.9971 36.6044C29.9655 36.5611 29.9361 36.5135 29.9148 36.4639C29.8915 36.415 29.862 36.336 29.8408 36.2351C29.8202 36.1348 29.8072 36.0113 29.8182 35.8746C29.8291 35.7392 29.8634 35.5899 29.9354 35.4357C30.0074 35.2821 30.1171 35.1241 30.2788 34.9699C30.2788 34.9699 30.274 34.9993 30.2686 35.0495C30.2638 35.099 30.2583 35.168 30.2569 35.2464C30.2562 35.326 30.2596 35.4144 30.2727 35.5015C30.2843 35.59 30.3069 35.6765 30.3419 35.7523C30.3776 35.8282 30.4262 35.9028 30.4859 35.9762C30.5441 36.0489 30.6127 36.1204 30.6867 36.1887C30.7601 36.257 30.8396 36.3222 30.9198 36.3837C31 36.4458 31.0809 36.5034 31.1584 36.5561C31.2359 36.6081 31.3263 36.6721 31.4223 36.7467C31.5176 36.8207 31.6191 36.9053 31.7178 37C31.8179 37.094 31.9159 37.1987 32.003 37.311C32.0914 37.4238 32.1696 37.5448 32.2313 37.6734C32.2916 37.8031 32.3416 37.9492 32.3718 38.0984C32.402 38.2483 32.4122 38.4013 32.3903 38.5436C32.3684 38.6859 32.3156 38.8182 32.2196 38.9254C32.1243 39.0332 31.9858 39.1166 31.7946 39.1605C31.7569 39.1693 31.7199 39.1756 31.6821 39.1806C31.6458 39.185 31.6088 39.1881 31.5731 39.1894C31.5375 39.19 31.5012 39.1894 31.4669 39.1868C31.4312 39.1843 31.397 39.1806 31.3627 39.1749ZM26.0442 40.3875C25.8948 40.3643 25.7563 40.3154 25.6309 40.2489C25.5047 40.1825 25.3916 40.0984 25.2922 40.0075C25.1935 39.9166 25.1092 39.8182 25.0406 39.7223C24.972 39.6263 24.9193 39.5329 24.8843 39.4514C24.826 39.3173 24.8048 39.1831 24.8075 39.0546C24.8096 38.9267 24.8349 38.805 24.8699 38.6966C24.9049 38.5881 24.9494 38.4922 24.9906 38.4169C25.0317 38.3411 25.0694 38.2846 25.09 38.2545C25.1105 38.2245 25.1092 38.1887 25.0948 38.153C25.0804 38.1172 25.0543 38.0809 25.0255 38.0483C24.996 38.0157 24.9645 37.9868 24.9405 37.9668L24.8987 37.9329L24.8644 37.9009C24.8432 37.8809 24.8144 37.8514 24.7828 37.8157C24.7506 37.7799 24.7163 37.7379 24.6841 37.6922C24.6519 37.6464 24.6231 37.5969 24.6005 37.5455C24.5785 37.4947 24.5504 37.4113 24.5319 37.3047C24.5141 37.1987 24.5059 37.0702 24.523 36.9266C24.5408 36.7837 24.584 36.6269 24.669 36.4646C24.7527 36.3034 24.8781 36.136 25.0591 35.973C25.0591 35.973 25.0523 36.005 25.0447 36.057C25.0372 36.1084 25.0289 36.1812 25.0242 36.2639C25.02 36.3461 25.02 36.4389 25.0296 36.531C25.0392 36.6226 25.0584 36.7135 25.0927 36.7931C25.1277 36.8727 25.1777 36.9517 25.238 37.0282C25.2977 37.1047 25.3683 37.1793 25.4451 37.2502C25.5219 37.3216 25.6041 37.39 25.6878 37.4539C25.7714 37.5179 25.8557 37.5774 25.938 37.632C26.0182 37.6859 26.1128 37.7523 26.2136 37.8295C26.313 37.9072 26.4192 37.9956 26.5221 38.094C26.6249 38.1937 26.7257 38.3022 26.8155 38.4207C26.9053 38.5379 26.9841 38.6652 27.0444 38.8013C27.1041 38.9367 27.1528 39.0903 27.1788 39.247C27.2055 39.4044 27.209 39.5649 27.1795 39.7147C27.15 39.8652 27.087 40.0044 26.9793 40.1185C26.8717 40.232 26.7188 40.321 26.5097 40.3687C26.4693 40.3781 26.4281 40.3856 26.3884 40.3906C26.3479 40.3963 26.3089 40.3988 26.2698 40.4006C26.2307 40.4019 26.193 40.4013 26.1553 40.3994C26.1176 40.3969 26.0806 40.3931 26.0442 40.3875ZM20.2466 41.7072C20.0869 41.6847 19.9395 41.6333 19.8065 41.5649C19.6735 41.4953 19.5549 41.4076 19.4521 41.3129C19.3492 41.2176 19.2622 41.1148 19.1922 41.0144C19.123 40.9135 19.0695 40.8157 19.0352 40.7311C18.979 40.5894 18.9626 40.447 18.9708 40.3116C18.979 40.1768 19.0119 40.0483 19.0551 39.9336C19.0976 39.8195 19.1504 39.7179 19.1984 39.6376C19.2464 39.558 19.2896 39.4984 19.3129 39.4665C19.3362 39.4339 19.3362 39.3969 19.3225 39.3586C19.3088 39.321 19.282 39.2828 19.2526 39.2483C19.2224 39.2144 19.1895 39.1843 19.1641 39.1624L19.1209 39.1279L19.086 39.0947C19.064 39.0734 19.0346 39.0433 19.0017 39.0057C18.9687 38.968 18.9338 38.9241 18.9009 38.8765C18.8687 38.8276 18.8392 38.7762 18.8166 38.7216C18.7953 38.6683 18.7686 38.5812 18.7542 38.4696C18.7391 38.358 18.7363 38.2219 18.7624 38.0708C18.7885 37.9197 18.8426 37.7549 18.9406 37.5831C19.0394 37.4125 19.182 37.2351 19.3842 37.0627C19.3842 37.0627 19.376 37.0959 19.3657 37.1505C19.3547 37.2056 19.3417 37.2821 19.3335 37.3699C19.3245 37.4564 19.3204 37.5542 19.3266 37.6514C19.3328 37.748 19.3499 37.8433 19.3835 37.9273C19.4178 38.01 19.4685 38.0928 19.5295 38.173C19.5912 38.2527 19.6639 38.3304 19.7434 38.4044C19.8229 38.479 19.9086 38.5505 19.9957 38.6176C20.0834 38.6846 20.1719 38.7467 20.2576 38.8038C20.3433 38.8608 20.4427 38.9298 20.5476 39.0113C20.6524 39.0915 20.7628 39.1843 20.8691 39.2872C20.976 39.3906 21.0788 39.5041 21.1707 39.6276C21.2619 39.7505 21.3414 39.8834 21.3997 40.0257C21.4586 40.1674 21.5039 40.3292 21.5258 40.4947C21.5471 40.6602 21.5443 40.8295 21.5053 40.9881C21.4669 41.1461 21.3921 41.2941 21.2708 41.4144C21.1488 41.5361 20.9801 41.6308 20.7518 41.6828C20.7073 41.6934 20.6627 41.7016 20.6195 41.7072C20.5763 41.7135 20.5332 41.7173 20.4913 41.7192C20.4488 41.721 20.4077 41.721 20.3666 41.7185C20.3261 41.7166 20.2864 41.7129 20.2466 41.7072ZM36.9375 44.938C36.8004 44.9186 36.6715 44.8728 36.5516 44.8095C36.4323 44.7461 36.3233 44.6653 36.2266 44.5769C36.1299 44.4885 36.0456 44.3925 35.9764 44.2979C35.9058 44.2038 35.8509 44.1123 35.8132 44.0314C35.7495 43.8985 35.72 43.7643 35.7118 43.6352C35.7035 43.5066 35.7166 43.3844 35.7399 43.274C35.7632 43.1649 35.7961 43.0678 35.8269 42.9913C35.8578 42.9135 35.8873 42.8558 35.9037 42.8245C35.9209 42.7944 35.9167 42.7593 35.9017 42.7242C35.8866 42.6884 35.8598 42.6533 35.8311 42.6214C35.8016 42.5894 35.7714 42.5612 35.7474 42.5405L35.707 42.5079L35.6734 42.4778C35.6535 42.4577 35.6247 42.4295 35.5925 42.3944C35.5609 42.3593 35.526 42.3185 35.4931 42.2728C35.4602 42.2282 35.4293 42.1787 35.4046 42.1273C35.3813 42.0771 35.3491 41.995 35.3244 41.8897C35.3004 41.7837 35.2826 41.6552 35.2874 41.511C35.2922 41.3668 35.319 41.2088 35.3827 41.0433C35.4458 40.8784 35.5459 40.7079 35.696 40.538C35.696 40.538 35.6933 40.5699 35.6905 40.6226C35.6878 40.6746 35.685 40.748 35.6878 40.8314C35.6898 40.9148 35.6974 41.0075 35.7138 41.0997C35.7296 41.1919 35.7543 41.2834 35.7927 41.3618C35.8304 41.4402 35.8818 41.5179 35.9421 41.5925C36.0024 41.6677 36.0724 41.7405 36.1478 41.8101C36.2225 41.8797 36.302 41.9461 36.3822 42.0076C36.4631 42.0696 36.544 42.1273 36.6215 42.18C36.6996 42.232 36.7915 42.296 36.8882 42.3706C36.9848 42.4458 37.0877 42.5317 37.1884 42.6276C37.2892 42.7242 37.3886 42.8301 37.4791 42.9455C37.5696 43.0609 37.6512 43.1862 37.7156 43.3192C37.7807 43.454 37.837 43.6069 37.8733 43.7637C37.9096 43.9204 37.9261 44.0816 37.9117 44.2327C37.8966 44.3838 37.8507 44.5254 37.7622 44.6421C37.6745 44.7593 37.5435 44.8521 37.3584 44.9054C37.3214 44.9167 37.2858 44.9242 37.2501 44.9311C37.2138 44.938 37.1781 44.9418 37.1432 44.9443C37.1082 44.9468 37.0733 44.9474 37.039 44.9461C37.0047 44.9455 36.9711 44.9417 36.9375 44.938ZM13.9081 43.1524C13.7353 43.1298 13.577 43.0772 13.4357 43.0044C13.2938 42.933 13.1691 42.8408 13.0614 42.7417C12.9545 42.6414 12.8654 42.5336 12.7941 42.4276C12.7228 42.3217 12.6707 42.2182 12.6378 42.1279C12.5829 41.98 12.5713 41.8295 12.587 41.6866C12.6021 41.543 12.6439 41.4069 12.6967 41.2859C12.7481 41.1643 12.8105 41.0571 12.8667 40.9718C12.9223 40.8865 12.9716 40.8232 12.999 40.7894C13.0258 40.7555 13.0285 40.716 13.0148 40.6765C13.0025 40.637 12.975 40.5969 12.9449 40.5618C12.9147 40.5254 12.8811 40.4941 12.8544 40.4715L12.8098 40.4351L12.7721 40.4C12.7495 40.3781 12.7187 40.3461 12.6851 40.306C12.6508 40.2671 12.6144 40.2207 12.5809 40.1706C12.548 40.1198 12.5178 40.0652 12.4965 40.0082C12.476 39.9517 12.452 39.8596 12.441 39.7417C12.4314 39.6238 12.4348 39.4809 12.4698 39.321C12.5054 39.1618 12.5719 38.9868 12.6871 38.8056C12.8023 38.6251 12.9654 38.437 13.1937 38.2533C13.1937 38.2533 13.1834 38.2878 13.1691 38.3461C13.1547 38.4038 13.1368 38.4846 13.1231 38.5762C13.1094 38.6677 13.1005 38.7712 13.1026 38.8727C13.1046 38.9749 13.1183 39.0752 13.1519 39.163C13.1848 39.2514 13.2349 39.3379 13.2979 39.4226C13.3603 39.5066 13.4357 39.5887 13.5187 39.6665C13.6009 39.7448 13.6901 39.8195 13.7812 39.8884C13.8724 39.958 13.9657 40.0232 14.0555 40.0821C14.1453 40.1417 14.2502 40.2138 14.3598 40.2978C14.4695 40.3831 14.5847 40.4796 14.6951 40.5875C14.8061 40.6959 14.9124 40.8151 15.0056 40.9449C15.0995 41.0746 15.1791 41.2151 15.236 41.3649C15.2929 41.5148 15.3347 41.6853 15.3505 41.859C15.3655 42.0339 15.3539 42.2132 15.3052 42.3812C15.2558 42.5486 15.1681 42.7054 15.031 42.8345C14.8939 42.9637 14.7067 43.0652 14.4572 43.1229C14.4078 43.1342 14.3598 43.143 14.3119 43.1499C14.2646 43.1555 14.2179 43.1605 14.172 43.1631C14.1261 43.1649 14.0815 43.1656 14.0376 43.1631C13.9938 43.1612 13.9499 43.158 13.9081 43.1524ZM31.8055 46.412C31.6588 46.3932 31.5217 46.3468 31.3956 46.2809C31.2701 46.2151 31.1556 46.1311 31.0556 46.0377C30.9548 45.9455 30.8677 45.8446 30.7971 45.7461C30.7258 45.6471 30.671 45.5512 30.6333 45.4659C30.5716 45.3267 30.5448 45.1856 30.5407 45.0496C30.5373 44.9148 30.5565 44.785 30.586 44.6684C30.6148 44.553 30.6545 44.4502 30.6915 44.3687C30.7286 44.2872 30.7621 44.2264 30.782 44.1938C30.8005 44.1612 30.7978 44.1248 30.782 44.0872C30.7669 44.0502 30.7395 44.0126 30.7094 43.9794C30.6799 43.9455 30.6483 43.916 30.623 43.896L30.5812 43.8621L30.5469 43.8295C30.525 43.8088 30.4955 43.7787 30.4632 43.7424C30.4303 43.7054 30.3954 43.6627 30.3618 43.6151C30.3289 43.5681 30.298 43.5167 30.274 43.464C30.25 43.4101 30.2192 43.3236 30.1966 43.2126C30.1746 43.101 30.1609 42.9649 30.1719 42.8132C30.1822 42.6615 30.2178 42.4947 30.2932 42.3204C30.3686 42.1467 30.4831 41.9662 30.6525 41.7875C30.6525 41.7875 30.6477 41.8201 30.6422 41.8753C30.6367 41.9304 30.6319 42.0076 30.6305 42.0947C30.6298 42.1825 30.6333 42.2803 30.647 42.3768C30.6607 42.4734 30.6833 42.5687 30.7217 42.6508C30.7587 42.7342 30.8108 42.8151 30.8725 42.8941C30.9342 42.9725 31.0069 43.0489 31.0844 43.121C31.1625 43.1938 31.2455 43.2627 31.3298 43.3273C31.4141 43.3913 31.4998 43.4515 31.5814 43.506C31.663 43.5605 31.7576 43.627 31.8583 43.7047C31.9598 43.7831 32.066 43.8728 32.1709 43.9737C32.2751 44.0734 32.378 44.185 32.4712 44.306C32.5638 44.4276 32.6467 44.5587 32.7118 44.6997C32.7756 44.8408 32.8291 45.0001 32.8613 45.1643C32.8935 45.3298 32.9045 45.4997 32.8825 45.659C32.8599 45.8189 32.8044 45.9687 32.705 46.0929C32.6049 46.217 32.4602 46.3167 32.2594 46.375C32.2196 46.3863 32.1805 46.3957 32.1415 46.4026C32.1031 46.4095 32.0647 46.4145 32.0263 46.417C31.9886 46.4201 31.9516 46.4214 31.9145 46.4201C31.8775 46.4195 31.8419 46.4164 31.8055 46.412ZM26.206 48.0195C26.0484 48.002 25.9023 47.9531 25.7693 47.8847C25.637 47.8164 25.5171 47.7286 25.4129 47.6314C25.3087 47.5349 25.2195 47.4295 25.1469 47.3255C25.0749 47.222 25.0194 47.1211 24.9816 47.032C24.9206 46.8847 24.8987 46.7355 24.9001 46.5919C24.9028 46.449 24.9295 46.3117 24.9666 46.1888C25.0029 46.0659 25.0502 45.9581 25.0941 45.8715C25.1366 45.7856 25.1763 45.7211 25.1976 45.686C25.2195 45.6521 25.2175 45.612 25.2031 45.5731C25.188 45.5336 25.1599 45.4941 25.1297 45.459C25.0989 45.4239 25.0653 45.3925 25.0399 45.3706L24.996 45.3349L24.9604 45.3016C24.9378 45.2803 24.9076 45.249 24.874 45.2107C24.8411 45.1725 24.8048 45.1273 24.7705 45.0778C24.7369 45.0276 24.7054 44.9731 24.6814 44.9173C24.6581 44.8615 24.6279 44.7706 24.6087 44.6533C24.5902 44.5361 24.5813 44.3932 24.5998 44.2327C24.6176 44.0728 24.6636 43.896 24.7527 43.711C24.8411 43.5267 24.9727 43.3342 25.164 43.1442C25.164 43.1442 25.1571 43.1794 25.1489 43.2377C25.1407 43.2966 25.1311 43.3775 25.1263 43.4703C25.1215 43.5624 25.1215 43.6659 25.1318 43.7674C25.1427 43.8703 25.1626 43.9706 25.2003 44.0571C25.2367 44.1436 25.2895 44.2295 25.3525 44.3117C25.4163 44.3938 25.491 44.4734 25.5712 44.5493C25.6521 44.6258 25.7392 44.6979 25.8276 44.7649C25.916 44.8327 26.0052 44.8954 26.0915 44.9518C26.1765 45.0082 26.2766 45.0778 26.3815 45.1593C26.4878 45.2414 26.5995 45.3349 26.7078 45.4396C26.8168 45.5443 26.9231 45.6609 27.0177 45.7875C27.1123 45.9148 27.1953 46.0521 27.259 46.1994C27.3228 46.348 27.3742 46.5173 27.4023 46.691C27.4297 46.8646 27.4345 47.0446 27.4037 47.2126C27.3728 47.3825 27.307 47.5405 27.1932 47.6728C27.0801 47.8057 26.919 47.9117 26.6982 47.975C26.6551 47.9875 26.6126 47.9976 26.5701 48.0057C26.5275 48.0139 26.4857 48.0195 26.4446 48.0233C26.4035 48.0264 26.363 48.0283 26.3233 48.027C26.2835 48.027 26.2444 48.0239 26.206 48.0195ZM20.0766 49.7813C19.9073 49.7637 19.751 49.7136 19.6097 49.6427C19.4685 49.5719 19.3431 49.4797 19.2341 49.3781C19.1251 49.276 19.0325 49.165 18.9585 49.0559C18.8851 48.9468 18.8289 48.839 18.7932 48.7449C18.7329 48.5901 18.7158 48.4314 18.7247 48.2797C18.7336 48.1286 18.7686 47.9825 18.8145 47.8521C18.8604 47.7223 18.916 47.6063 18.9674 47.5142C19.0181 47.422 19.064 47.3531 19.0894 47.3161C19.1141 47.2791 19.1141 47.2383 19.0997 47.1963C19.0853 47.1549 19.0565 47.1136 19.0256 47.0772C18.9934 47.0408 18.9592 47.0089 18.9317 46.9857L18.8865 46.9493L18.8495 46.9129C18.8262 46.8904 18.7946 46.8571 18.7603 46.8176C18.7254 46.7769 18.6884 46.7292 18.6541 46.6772C18.6191 46.6245 18.5876 46.5681 18.565 46.5092C18.5417 46.4502 18.5135 46.353 18.4985 46.2289C18.4834 46.1054 18.4806 45.9537 18.5081 45.7838C18.5355 45.6145 18.5931 45.427 18.698 45.2308C18.8028 45.0352 18.9537 44.8314 19.1689 44.6283C19.1689 44.6283 19.1593 44.6659 19.1484 44.7273C19.1374 44.7894 19.1237 44.8753 19.1141 44.9718C19.1052 45.0696 19.1004 45.1787 19.1065 45.2866C19.1134 45.3944 19.1305 45.5004 19.1662 45.5919C19.2018 45.6841 19.256 45.7737 19.3204 45.8603C19.3862 45.9474 19.463 46.0308 19.5467 46.1104C19.631 46.1894 19.7215 46.2646 19.814 46.3349C19.9059 46.4057 19.9998 46.4709 20.0903 46.5305C20.1808 46.5894 20.2864 46.6615 20.3974 46.7474C20.5078 46.8327 20.6243 46.9305 20.7374 47.0408C20.8499 47.1512 20.9596 47.2734 21.0562 47.407C21.1529 47.5411 21.2365 47.686 21.2989 47.8427C21.3606 47.9982 21.4086 48.1763 21.4312 48.36C21.4538 48.5443 21.4504 48.7336 21.41 48.9129C21.3681 49.0929 21.2893 49.2615 21.1611 49.4032C21.0315 49.5449 20.8526 49.6597 20.6106 49.7299C20.5633 49.743 20.5167 49.7543 20.4708 49.7631C20.4242 49.7719 20.3796 49.7782 20.335 49.7825C20.2905 49.7869 20.2466 49.7882 20.2034 49.7882C20.1609 49.7882 20.1184 49.7857 20.0766 49.7813ZM34.994 53.518C34.8452 53.5036 34.7054 53.4591 34.5758 53.3926C34.4469 53.3268 34.329 53.2403 34.2248 53.1443C34.1206 53.0484 34.0301 52.9424 33.9554 52.8384C33.8807 52.7349 33.8224 52.6315 33.7813 52.5418C33.7155 52.392 33.6846 52.239 33.6778 52.0917C33.6716 51.9437 33.688 51.8026 33.7155 51.6747C33.7422 51.5468 33.7799 51.434 33.8149 51.3437C33.8505 51.2534 33.8834 51.1857 33.9013 51.15C33.9198 51.1136 33.915 51.0728 33.8992 51.0333C33.8827 50.9938 33.8539 50.9537 33.8231 50.9186C33.7922 50.8841 33.7593 50.8534 33.7333 50.8321L33.6908 50.797L33.6545 50.7631C33.6325 50.7418 33.6017 50.7104 33.5681 50.6722C33.5338 50.634 33.4975 50.5882 33.4625 50.5387C33.4275 50.4885 33.3946 50.4346 33.3686 50.3775C33.3432 50.3205 33.3096 50.2277 33.2843 50.1073C33.2589 49.9869 33.2418 49.8402 33.2493 49.6747C33.2568 49.5098 33.2884 49.3261 33.3604 49.1336C33.433 48.9424 33.5448 48.7405 33.712 48.5393C33.712 48.5393 33.7079 48.5756 33.7038 48.6358C33.6997 48.696 33.6963 48.7794 33.6976 48.8747C33.699 48.9694 33.7059 49.0753 33.7216 49.18C33.7374 49.2841 33.7628 49.3863 33.8032 49.4747C33.8423 49.5631 33.8978 49.6496 33.9629 49.7324C34.0274 49.8158 34.1028 49.8948 34.1837 49.9706C34.2639 50.0459 34.3489 50.1167 34.436 50.1838C34.523 50.2496 34.6108 50.3111 34.6951 50.3669C34.7787 50.422 34.8775 50.4904 34.9824 50.5713C35.0866 50.6515 35.1969 50.7443 35.3059 50.849C35.4142 50.9537 35.5212 51.0703 35.6172 51.1976C35.7145 51.3261 35.8009 51.4653 35.8701 51.6158C35.9387 51.7663 35.9976 51.938 36.0347 52.1155C36.0717 52.2935 36.0868 52.4779 36.0683 52.6522C36.0491 52.8271 35.9976 52.992 35.8989 53.1312C35.8002 53.271 35.6556 53.3851 35.4526 53.4578C35.4122 53.4716 35.3731 53.4829 35.3347 53.4929C35.2956 53.5023 35.2559 53.5092 35.2182 53.5142C35.1805 53.5186 35.1421 53.5211 35.1051 53.5218C35.0674 53.5224 35.0303 53.5211 34.994 53.518ZM29.3465 55.5161C29.1861 55.5036 29.0366 55.4572 28.8995 55.3889C28.7624 55.3199 28.639 55.2296 28.5307 55.1287C28.4224 55.0284 28.3292 54.9168 28.2531 54.8077C28.177 54.6973 28.118 54.5889 28.0782 54.4936C28.0124 54.3356 27.9864 54.1732 27.985 54.0171C27.9843 53.8609 28.0083 53.7098 28.0433 53.5744C28.0776 53.4396 28.1235 53.3199 28.1653 53.2233C28.2071 53.128 28.2462 53.0559 28.2675 53.017C28.2887 52.9782 28.2853 52.9355 28.2702 52.8935C28.2544 52.8515 28.2256 52.8102 28.1934 52.7738C28.1619 52.7368 28.1276 52.7048 28.1016 52.6823L28.0563 52.6459L28.0193 52.6102C27.996 52.5876 27.9638 52.5544 27.9288 52.5142C27.8931 52.4741 27.8554 52.4258 27.8191 52.3732C27.7835 52.3205 27.7499 52.2622 27.7245 52.202C27.6991 52.1424 27.6669 52.0446 27.645 51.918C27.623 51.7913 27.6114 51.6358 27.6265 51.4603C27.6416 51.2854 27.6841 51.0904 27.7704 50.8854C27.8561 50.681 27.985 50.4666 28.1742 50.2503C28.1742 50.2503 28.1681 50.2891 28.1612 50.3531C28.1543 50.4164 28.1475 50.5061 28.1447 50.6064C28.1427 50.7073 28.1447 50.8202 28.1585 50.9305C28.1715 51.0415 28.1948 51.1506 28.2345 51.2434C28.2736 51.3362 28.3285 51.4264 28.395 51.513C28.4608 51.6001 28.5382 51.6835 28.6219 51.7625C28.7055 51.8421 28.7953 51.9167 28.8865 51.9863C28.9777 52.0559 29.0695 52.1199 29.158 52.1782C29.2471 52.2359 29.3499 52.3073 29.4596 52.3913C29.5686 52.476 29.6845 52.5732 29.7969 52.6829C29.91 52.7926 30.0204 52.9142 30.1191 53.0484C30.2178 53.1832 30.3056 53.3299 30.3741 53.4885C30.442 53.6472 30.4975 53.8283 30.5304 54.0164C30.5633 54.2039 30.5723 54.3989 30.5448 54.5838C30.5174 54.7694 30.4543 54.945 30.3426 55.0942C30.2302 55.2434 30.0697 55.3669 29.8476 55.4459C29.8038 55.4616 29.7599 55.4741 29.7174 55.4854C29.6749 55.4961 29.6324 55.5036 29.5906 55.5092C29.548 55.5149 29.5076 55.5186 29.4672 55.5193C29.426 55.5205 29.3863 55.5193 29.3465 55.5161Z" fill="white"/>
<path d="M30.9977 23.8975C29.8041 23.9202 28.6106 23.943 27.3921 23.9885C26.124 24.0339 24.8807 24.1022 23.5877 24.1931C22.2698 24.2841 20.9519 24.3978 19.5843 24.5342C18.1918 24.6707 16.7993 24.8299 15.382 25.0118C13.9398 25.1937 12.4976 25.4211 11.0056 25.6485C9.51367 25.8987 7.97199 26.1716 6.43031 26.4672C4.86377 26.7629 3.2475 27.104 1.63123 27.4451C2.00421 28.3547 2.40206 29.2644 2.77505 30.174C3.1729 31.0609 3.57075 31.9706 3.99347 32.8575C4.39132 33.7444 4.78917 34.6313 5.21189 35.5182C5.63461 36.3823 6.05733 37.2465 6.48004 38.0879C7.99686 37.5421 9.51367 37.0645 11.0056 36.6097C12.4478 36.1549 13.9149 35.7683 15.3322 35.3817C16.7496 35.0179 18.1421 34.6995 19.5097 34.4038C20.8773 34.1082 22.2201 33.8353 23.5379 33.6079C24.8558 33.3805 26.1488 33.1986 27.417 33.0394C28.6603 32.8802 29.8787 32.7437 31.0971 32.63C32.2907 32.5391 33.4594 32.4481 34.6032 32.4026C35.747 32.3572 36.866 32.3344 37.9849 32.3344C37.7363 31.6522 37.4628 30.9699 37.1644 30.2877C36.8908 29.5827 36.5925 28.8778 36.2941 28.1728C35.9957 27.4906 35.6973 26.7629 35.3989 26.0579C35.0756 25.3529 34.7773 24.6479 34.454 23.943C33.5588 23.9202 32.6885 23.8975 31.7934 23.8975C31.5198 23.8975 31.2712 23.8975 30.9977 23.8975ZM30.0279 29.037C30.3014 29.037 30.4506 28.9233 30.5004 28.7186C30.5501 28.5367 30.5004 28.2865 30.4009 28.0136C30.2766 27.7407 30.1025 27.4451 29.8538 27.1495C29.6052 26.8766 29.3068 26.6037 28.9835 26.3763L29.5803 24.6934L31.3707 26.3308C31.2215 26.5354 31.1469 26.7856 31.122 27.0585C31.0723 27.3314 31.0971 27.6043 31.1717 27.8772C31.2463 28.1273 31.3458 28.3775 31.5198 28.5594C31.669 28.7413 31.8431 28.8778 32.0669 28.9233L32.241 28.946H32.2907C32.5393 28.946 32.7134 28.8323 32.8129 28.6731C32.9123 28.5139 32.9372 28.2865 32.8875 28.0364C32.8626 27.7635 32.7631 27.4678 32.6139 27.1495C32.4647 26.8311 32.2658 26.49 32.0172 26.1488L33.2604 25.0573L34.6032 31.2656L29.456 31.584L25.9997 25.1482L28.1878 26.2398C28.1878 26.5582 28.2127 26.8766 28.3122 27.1722C28.3868 27.4906 28.4862 27.7635 28.6354 28.0364C28.7597 28.2865 28.9338 28.5139 29.1327 28.6731C29.3317 28.855 29.5306 28.9687 29.7544 29.0142L29.9036 29.037H30.0279ZM20.4795 30.0376H20.6535C20.9519 29.9921 21.1011 29.8329 21.1508 29.6282C21.2006 29.4236 21.1508 29.1507 21.0016 28.855C20.8524 28.5594 20.6287 28.2638 20.3551 27.9681C20.0567 27.6725 19.7335 27.3996 19.3356 27.1949L19.9075 25.2847L21.9963 26.8766C21.8471 27.1267 21.7725 27.3996 21.7476 27.6952C21.7227 27.9909 21.7476 28.2865 21.8471 28.5594C21.9217 28.8323 22.046 29.1052 22.2201 29.2871C22.3941 29.4918 22.593 29.6282 22.8168 29.6737H22.8914H23.0655H23.1401C23.4136 29.6282 23.5877 29.5145 23.6871 29.3326C23.7866 29.1279 23.8115 28.8778 23.7617 28.6049C23.712 28.3092 23.5877 27.9909 23.4136 27.6498C23.2147 27.3086 22.9909 26.9675 22.6925 26.6264L24.0104 25.2847L25.8007 31.9706L20.1313 32.9029L15.9539 26.1488L18.4405 27.1267C18.4653 27.4678 18.5151 27.7862 18.6145 28.1046C18.714 28.4457 18.8383 28.7413 19.0124 29.0142C19.1616 29.2644 19.3605 29.4918 19.5594 29.6737C19.7832 29.8556 20.007 29.9693 20.2557 30.0148C20.2557 30.0148 20.3054 30.0376 20.3551 30.0376H20.4795ZM12.7711 31.5385L12.8705 31.5157C12.9203 31.5157 12.9451 31.5157 12.9949 31.493C13.2933 31.4248 13.4922 31.2656 13.5916 31.0382C13.6911 30.8335 13.716 30.5379 13.6414 30.2195C13.5668 29.9239 13.3927 29.56 13.1689 29.2189C12.97 28.855 12.6716 28.4912 12.3235 28.1273L13.716 26.5127L16.1031 33.7671L9.78719 35.4499L4.66485 28.3547L7.54927 29.1734C7.57414 29.5373 7.6736 29.8784 7.79793 30.2195C7.92226 30.5606 8.07145 30.879 8.24551 31.1519C8.44444 31.4248 8.64336 31.6749 8.89202 31.8568C9.11581 32.016 9.36447 32.1525 9.63799 32.198C9.68773 32.198 9.73746 32.198 9.78719 32.2207C9.83692 32.2207 9.91152 32.2207 9.91152 32.2207C9.96125 32.2207 10.011 32.198 10.0607 32.198C10.1104 32.198 10.1602 32.198 10.2099 32.1752C10.5332 32.107 10.7072 31.9251 10.757 31.6749C10.8067 31.4475 10.7072 31.1291 10.5332 30.8335C10.3591 30.5151 10.0856 30.1968 9.76232 29.9011C9.4142 29.6055 9.01635 29.3326 8.56877 29.1507L9.11581 26.9448L11.5527 28.5139C11.4035 28.7868 11.3289 29.1052 11.304 29.4236C11.304 29.7419 11.3537 30.0603 11.4532 30.3559C11.5527 30.6516 11.7019 30.9245 11.9008 31.1291C12.0748 31.3338 12.2986 31.4703 12.5722 31.5157C12.5722 31.5157 12.6219 31.5385 12.6716 31.5385H12.7711Z" fill="url(#paint0_radial_44_7459)"/>
<path d="M34.689 23.5736L34.5046 23.5692C33.3529 23.5366 32.184 23.521 30.9987 23.5247C29.7935 23.5279 28.5698 23.551 27.3283 23.5931C26.0635 23.6363 24.7788 23.7003 23.4728 23.7862C22.1408 23.8733 20.7862 23.983 19.4082 24.1172C18.0008 24.2533 16.5783 24.4125 15.1414 24.5968C13.673 24.7843 12.1874 24.9968 10.6854 25.2351C9.14841 25.479 7.59291 25.7498 6.01684 26.0482C4.40308 26.3542 2.76737 26.689 1.10904 27.0539L0.83551 27.1141L0.925317 27.3323C1.5711 28.8853 2.23333 30.4314 2.90928 31.9517C3.59345 33.4941 4.29065 35.0082 4.99607 36.4747C5.70972 37.9593 6.43091 39.3926 7.15416 40.7537C7.88495 42.1286 8.61642 43.4264 9.34379 44.6252C10.7156 46.8879 12.3862 49.0415 14.2941 51.0127C16.2129 52.9964 18.3539 54.777 20.6463 56.2849C22.9285 57.7864 25.3382 59.0034 27.8013 59.8755C30.2295 60.7351 32.6845 61.2498 35.0948 61.3746C35.1332 61.3764 35.1716 61.3783 35.21 61.3802C35.2484 61.3821 35.2861 61.384 35.3238 61.3852C35.3615 61.3871 35.3999 61.3884 35.4376 61.3902C35.476 61.3909 35.5137 61.3927 35.5514 61.394L35.6625 61.3965L35.7345 61.3169C37.3016 59.5902 38.528 57.6705 39.4378 55.6422C40.3118 53.6924 40.8959 51.6365 41.2106 49.5437C41.5136 47.523 41.5677 45.4603 41.3888 43.4108C41.2161 41.4227 40.8239 39.4365 40.2241 37.4998C39.9135 36.4972 39.5509 35.4314 39.1464 34.3173C38.7474 33.2182 38.3066 32.074 37.835 30.8984C37.3695 29.7392 36.8731 28.5498 36.3556 27.3442C35.8441 26.1555 35.3115 24.9511 34.7658 23.7429L34.689 23.5736ZM6.4693 38.0778C6.04906 37.2396 5.6302 36.3819 5.21408 35.5073C4.80069 34.6389 4.39005 33.7549 3.98352 32.8596C3.57974 31.9712 3.18007 31.0721 2.7852 30.1662C2.39375 29.2677 2.00642 28.3624 1.62526 27.4545C3.24999 27.094 4.85348 26.7624 6.43503 26.4589C7.98093 26.163 9.50763 25.8934 11.0158 25.6501C12.4911 25.4119 13.9499 25.1987 15.3923 25.0106C16.8046 24.8257 18.2024 24.6645 19.5865 24.5266C20.9418 24.3912 22.2745 24.2783 23.5846 24.1874C24.87 24.099 26.1348 24.0313 27.3804 23.9843C28.6034 23.9379 29.8086 23.9109 30.9967 23.9028C32.1635 23.8946 33.3159 23.9047 34.4518 23.9316C34.7713 24.6432 35.0852 25.3536 35.3931 26.0602C35.7036 26.7724 36.008 27.4802 36.3035 28.1818C36.6017 28.889 36.8917 29.5893 37.1714 30.2796C37.4524 30.9749 37.7239 31.6615 37.983 32.3336C38.1585 32.7913 38.3292 33.2427 38.4938 33.6866C38.6583 34.133 38.8167 34.5725 38.9682 35.0032C39.121 35.437 39.2664 35.8621 39.4035 36.2778C39.542 36.696 39.6729 37.1048 39.7949 37.5029C40.3783 39.4032 40.7375 41.3086 40.8699 43.192C41.0063 45.1299 40.9041 47.0528 40.5573 48.9281C40.198 50.8673 39.5762 52.7626 38.6837 54.572C37.7561 56.4498 36.5338 58.241 35.0071 59.8943C34.9735 59.893 34.9399 59.8918 34.907 59.8899C34.8734 59.888 34.8398 59.8868 34.8055 59.8849C34.7726 59.8836 34.739 59.8811 34.7055 59.8799C34.6712 59.878 34.6376 59.8755 34.604 59.8742C32.2663 59.7357 29.908 59.2742 27.5875 58.5106C25.2326 57.735 22.9388 56.6548 20.7656 55.3005C18.5822 53.9388 16.5413 52.3137 14.7027 50.4635C12.873 48.6221 11.2619 46.5769 9.91896 44.3725C9.6324 43.9011 9.34379 43.4133 9.05517 42.9111C8.76725 42.4108 8.47932 41.896 8.19002 41.3675C7.90277 40.8415 7.61553 40.3029 7.32692 39.7524C7.04105 39.2051 6.75517 38.6465 6.4693 38.0778Z" fill="#403F41"/>
<path d="M19.1685 44.6284C18.9532 44.8316 18.8024 45.0353 18.6982 45.2303C18.5926 45.4272 18.535 45.6146 18.5076 45.7839C18.4802 45.9538 18.4829 46.1055 18.498 46.2291C18.5131 46.3532 18.5412 46.4504 18.5645 46.5093C18.5871 46.5682 18.6187 46.6247 18.6536 46.6767C18.6879 46.7294 18.7256 46.777 18.7599 46.8178C18.7942 46.8573 18.8257 46.8905 18.849 46.9131L18.886 46.9488L18.9313 46.9858C18.9587 47.009 18.993 47.041 19.0252 47.0773C19.056 47.1137 19.0848 47.1551 19.0992 47.1965C19.1136 47.2385 19.1136 47.2792 19.0889 47.3162C19.0636 47.3532 19.0176 47.4222 18.9669 47.5137C18.9155 47.6065 18.86 47.7225 18.814 47.8523C18.7681 47.9827 18.7331 48.1281 18.7242 48.2799C18.716 48.4316 18.7325 48.5902 18.7928 48.7451C18.8284 48.8391 18.8846 48.9469 18.958 49.056C19.032 49.1651 19.1246 49.2761 19.2336 49.3783C19.3426 49.4799 19.468 49.572 19.6093 49.6429C19.7505 49.7137 19.9068 49.7639 20.0761 49.7808C20.1179 49.7858 20.1604 49.7883 20.2029 49.7883C20.2461 49.7883 20.29 49.7865 20.3346 49.7827C20.3791 49.7783 20.4244 49.772 20.4703 49.7633C20.5162 49.7545 20.5629 49.7432 20.6108 49.73C20.8522 49.6598 21.0311 49.5451 21.1606 49.4034C21.2888 49.2617 21.3684 49.093 21.4095 48.9131C21.4499 48.7338 21.4534 48.5438 21.4314 48.3601C21.4088 48.1764 21.3601 47.9984 21.2984 47.8429C21.2361 47.6861 21.1524 47.5413 21.0558 47.4071C20.9591 47.2736 20.8501 47.1507 20.737 47.041C20.6246 46.9306 20.5073 46.8328 20.397 46.7476C20.2859 46.6617 20.1803 46.5896 20.0898 46.5306C20 46.4704 19.9061 46.4052 19.8136 46.335C19.721 46.2648 19.6305 46.1896 19.5462 46.1106C19.4626 46.0309 19.3858 45.9476 19.3207 45.8604C19.2555 45.7739 19.2021 45.6842 19.1657 45.5914C19.1301 45.5005 19.1129 45.3946 19.1061 45.2867C19.0999 45.1789 19.1047 45.0698 19.1136 44.972C19.1232 44.8754 19.1369 44.7895 19.1479 44.7275C19.1589 44.666 19.1685 44.6284 19.1685 44.6284Z" fill="#231F20"/>
<path d="M25.1638 43.1445C24.9725 43.3345 24.8409 43.527 24.7525 43.7113C24.6633 43.8963 24.6181 44.0731 24.5996 44.2329C24.5811 44.3934 24.59 44.5364 24.6092 44.6536C24.6284 44.7709 24.6579 44.8618 24.6818 44.9176C24.7052 44.9734 24.7367 45.0279 24.7703 45.0781C24.8046 45.1276 24.8409 45.1728 24.8745 45.211C24.9081 45.2493 24.9382 45.2806 24.9602 45.3019L24.9965 45.3351L25.0397 45.3709C25.0657 45.3928 25.0987 45.4242 25.1295 45.4593C25.1597 45.4944 25.1885 45.5333 25.2029 45.5734C25.2173 45.6123 25.2193 45.6518 25.1981 45.6862C25.1761 45.7214 25.137 45.7853 25.0939 45.8718C25.05 45.9583 25.0034 46.0662 24.9663 46.1891C24.9293 46.3113 24.9026 46.4493 24.8998 46.5922C24.8985 46.7358 24.9204 46.885 24.9821 47.0323C25.0191 47.1207 25.0747 47.2223 25.1473 47.3258C25.2193 47.4298 25.3084 47.5352 25.4126 47.6317C25.5175 47.7283 25.6368 47.8167 25.7691 47.885C25.9021 47.9533 26.0481 48.0023 26.2058 48.0198C26.2442 48.0242 26.2833 48.0273 26.3237 48.0273C26.3628 48.028 26.4039 48.0267 26.4444 48.0229C26.4862 48.0198 26.5273 48.0142 26.5698 48.006C26.6123 47.9979 26.6548 47.9878 26.6987 47.9753C26.9188 47.912 27.0799 47.806 27.1937 47.6731C27.3068 47.5408 27.3726 47.3828 27.4035 47.2129C27.4343 47.0449 27.4302 46.8649 27.4021 46.6913C27.3747 46.5176 27.3226 46.3483 27.2588 46.1997C27.1957 46.0524 27.1121 45.9151 27.0175 45.7878C26.9229 45.6612 26.8166 45.5446 26.7076 45.4398C26.5993 45.3351 26.4876 45.2411 26.382 45.1596C26.2764 45.0781 26.1763 45.0085 26.0913 44.9521C26.0049 44.8956 25.9158 44.8329 25.8274 44.7652C25.739 44.6981 25.6526 44.626 25.5717 44.5496C25.4908 44.4737 25.4161 44.3941 25.3523 44.3119C25.2892 44.2298 25.2371 44.1439 25.2001 44.0574C25.1631 43.9709 25.1425 43.8706 25.1322 43.7677C25.122 43.6662 25.122 43.5627 25.1268 43.4699C25.1309 43.3778 25.1405 43.2963 25.1487 43.2379C25.1569 43.1796 25.1638 43.1445 25.1638 43.1445Z" fill="#231F20"/>
<path d="M30.6527 41.7876C30.4834 41.9663 30.3682 42.1468 30.2935 42.3205C30.2181 42.4948 30.1824 42.6616 30.1715 42.8133C30.1605 42.965 30.1742 43.1011 30.1968 43.2127C30.2188 43.3237 30.2503 43.4102 30.2743 43.4641C30.2976 43.5168 30.3284 43.5682 30.362 43.6152C30.3949 43.6628 30.4306 43.7055 30.4628 43.7425C30.4957 43.7788 30.5252 43.8089 30.5471 43.8296L30.5814 43.8622L30.6232 43.8961C30.6479 43.9168 30.6801 43.9456 30.7096 43.9795C30.7398 44.0127 30.7672 44.0503 30.7823 44.0873C30.7974 44.1249 30.8008 44.1613 30.7823 44.1939C30.7624 44.2265 30.7281 44.2873 30.6911 44.3688C30.6548 44.4509 30.615 44.5531 30.5862 44.6685C30.5567 44.7851 30.5375 44.9149 30.541 45.0497C30.5451 45.1857 30.5711 45.3268 30.6335 45.466C30.6712 45.5513 30.7261 45.6478 30.7974 45.7463C30.868 45.8447 30.9543 45.9456 31.0551 46.0384C31.1559 46.1312 31.2697 46.2152 31.3958 46.2811C31.5213 46.3469 31.6584 46.3933 31.8058 46.4121C31.8414 46.4165 31.8778 46.4196 31.9148 46.4202C31.9511 46.4215 31.9888 46.4202 32.0265 46.4171C32.0649 46.4146 32.1033 46.4096 32.1417 46.4027C32.1808 46.3958 32.2199 46.3864 32.2596 46.3751C32.4605 46.3168 32.6051 46.2171 32.7052 46.093C32.8046 45.9688 32.8602 45.819 32.8821 45.6591C32.904 45.4999 32.8931 45.3299 32.8615 45.1644C32.8293 45.0002 32.7751 44.8409 32.7114 44.7005C32.6469 44.5588 32.564 44.4277 32.4708 44.3061C32.3782 44.1851 32.2754 44.0735 32.1705 43.9738C32.0663 43.8729 31.9593 43.7832 31.8586 43.7049C31.7578 43.6271 31.6625 43.5607 31.5809 43.5061C31.4994 43.4516 31.4137 43.3914 31.33 43.3274C31.245 43.2628 31.1621 43.1939 31.0846 43.1212C31.0071 43.0491 30.9345 42.9726 30.8728 42.8942C30.8104 42.8158 30.759 42.7343 30.7213 42.6509C30.6836 42.5688 30.6609 42.4735 30.6472 42.3769C30.6335 42.2804 30.6301 42.1826 30.6308 42.0948C30.6315 42.0077 30.6369 41.9305 30.6424 41.876C30.6479 41.8202 30.6527 41.7876 30.6527 41.7876Z" fill="#231F20"/>
<path d="M35.6964 40.5383C35.5456 40.7076 35.4455 40.8788 35.3825 41.043C35.3187 41.2086 35.2927 41.3672 35.2879 41.5108C35.2831 41.655 35.3002 41.7835 35.3249 41.8894C35.3496 41.9954 35.3811 42.0775 35.4051 42.1277C35.4298 42.1785 35.4599 42.228 35.4935 42.2731C35.5264 42.3183 35.5607 42.3597 35.5929 42.3948C35.6245 42.4299 35.6533 42.4581 35.6738 42.4775L35.7074 42.5083L35.7479 42.5409C35.7712 42.5615 35.802 42.5891 35.8308 42.6217C35.8596 42.6537 35.8863 42.6888 35.9014 42.7246C35.9165 42.7597 35.9206 42.7948 35.9035 42.8249C35.8877 42.8562 35.8582 42.9139 35.8267 42.991C35.7965 43.0681 35.7629 43.1647 35.7403 43.2744C35.717 43.3847 35.704 43.507 35.7122 43.6355C35.7204 43.7641 35.7499 43.8989 35.813 44.0318C35.8514 44.112 35.9062 44.2042 35.9761 44.2982C36.0461 44.3929 36.1304 44.4882 36.227 44.5772C36.3237 44.6656 36.4327 44.7459 36.552 44.8092C36.6713 44.8732 36.8002 44.9189 36.9373 44.9377C36.9709 44.9421 37.0051 44.9453 37.0387 44.9465C37.0737 44.9478 37.1087 44.9471 37.1436 44.9446C37.1786 44.9421 37.2142 44.9377 37.2499 44.9315C37.2855 44.9246 37.3219 44.9164 37.3582 44.9058C37.544 44.8525 37.6742 44.7591 37.7627 44.6424C37.8511 44.5252 37.897 44.3835 37.9114 44.2324C37.9258 44.0813 37.9101 43.9202 37.873 43.7634C37.8374 43.6073 37.7812 43.4543 37.716 43.3195C37.6509 43.1866 37.5693 43.0612 37.4795 42.9459C37.389 42.8305 37.2896 42.7239 37.1889 42.628C37.0874 42.5315 36.9853 42.4462 36.8879 42.3709C36.7913 42.2963 36.7001 42.2318 36.6212 42.1797C36.5445 42.1277 36.4629 42.07 36.3827 42.0079C36.3018 41.9465 36.2223 41.88 36.1475 41.8104C36.0721 41.7408 36.0022 41.6681 35.9425 41.5923C35.8815 41.5183 35.8308 41.4405 35.7931 41.3622C35.7547 41.2832 35.7293 41.1923 35.7136 41.1001C35.6978 41.0079 35.6903 40.9145 35.6875 40.8317C35.6855 40.7484 35.6875 40.6744 35.6903 40.6223C35.6937 40.5703 35.6964 40.5383 35.6964 40.5383Z" fill="#231F20"/>
<path d="M28.174 50.2507C27.9848 50.4664 27.8559 50.6808 27.7702 50.8858C27.6838 51.0902 27.642 51.2852 27.6263 51.4608C27.6112 51.6357 27.6228 51.7912 27.6448 51.9185C27.6674 52.0445 27.6989 52.1423 27.7243 52.2018C27.7497 52.262 27.7832 52.3203 27.8189 52.3736C27.8552 52.4263 27.8929 52.4739 27.9286 52.5147C27.9635 52.5548 27.9958 52.5881 28.0191 52.6106L28.0561 52.6464L28.1013 52.6827C28.1274 52.7053 28.1617 52.7373 28.1932 52.7736C28.2254 52.81 28.2542 52.852 28.27 52.894C28.2857 52.936 28.2885 52.9787 28.2672 53.0175C28.246 53.0558 28.2069 53.1279 28.1651 53.2238C28.1233 53.3197 28.078 53.4401 28.0431 53.5749C28.0081 53.7103 27.9841 53.8614 27.9848 54.0169C27.9862 54.1736 28.0122 54.3354 28.078 54.4934C28.1178 54.5893 28.1767 54.6978 28.2528 54.8075C28.3289 54.9172 28.4222 55.0282 28.5305 55.1291C28.6388 55.2295 28.7622 55.3204 28.8993 55.3887C29.0364 55.4577 29.1859 55.5041 29.3463 55.5166C29.386 55.5197 29.4258 55.521 29.4669 55.5197C29.5074 55.5185 29.5485 55.5147 29.5903 55.5091C29.6322 55.5041 29.6747 55.4965 29.7172 55.4853C29.7604 55.4746 29.8035 55.4621 29.8474 55.4464C30.0695 55.3668 30.2306 55.2439 30.3424 55.094C30.4541 54.9454 30.5172 54.7699 30.5446 54.5843C30.572 54.3987 30.5631 54.2044 30.5302 54.0163C30.498 53.8282 30.4418 53.647 30.3739 53.4884C30.3054 53.3304 30.2183 53.1837 30.1189 53.0489C30.0202 52.9147 29.9098 52.7924 29.7974 52.6827C29.6843 52.5736 29.5684 52.4758 29.4594 52.3918C29.3504 52.3072 29.2469 52.2363 29.1584 52.178C29.0693 52.1203 28.9775 52.0558 28.8863 51.9868C28.7951 51.9172 28.7053 51.842 28.6223 51.763C28.5387 51.684 28.4612 51.6006 28.3947 51.5134C28.3289 51.4269 28.2734 51.3366 28.235 51.2438C28.1946 51.1504 28.1713 51.042 28.1582 50.931C28.1445 50.82 28.1425 50.7078 28.1445 50.6068C28.1473 50.5065 28.1541 50.4169 28.1617 50.3529C28.1685 50.2896 28.174 50.2507 28.174 50.2507Z" fill="#231F20"/>
<path d="M33.7117 48.5393C33.5445 48.7406 33.4327 48.9424 33.3607 49.1337C33.2888 49.3261 33.2565 49.5098 33.249 49.6747C33.2421 49.8403 33.2586 49.987 33.284 50.1073C33.3093 50.2277 33.3429 50.3205 33.369 50.3776C33.395 50.434 33.4272 50.4885 33.4622 50.5387C33.4972 50.5882 33.5342 50.634 33.5685 50.6722C33.6014 50.7105 33.6322 50.7418 33.6542 50.7631L33.6905 50.797L33.7337 50.8321C33.759 50.8534 33.7926 50.8842 33.8228 50.9186C33.8536 50.9537 33.8824 50.9932 33.8989 51.0334C33.9153 51.0729 33.9195 51.1136 33.9009 51.1494C33.8831 51.1857 33.8502 51.2534 33.8146 51.3437C33.7796 51.434 33.7419 51.5469 33.7152 51.6748C33.6877 51.802 33.6713 51.9437 33.6781 52.0917C33.685 52.239 33.7152 52.392 33.7817 52.5418C33.8221 52.6315 33.8811 52.7343 33.9551 52.8384C34.0298 52.9425 34.1203 53.0484 34.2245 53.1444C34.3287 53.2403 34.4466 53.3268 34.5762 53.3926C34.7051 53.4591 34.8456 53.5036 34.9944 53.518C35.0307 53.5212 35.0671 53.5224 35.1048 53.5218C35.1418 53.5212 35.1802 53.5187 35.2186 53.5143C35.2563 53.5093 35.2953 53.5024 35.3344 53.493C35.3728 53.4829 35.4126 53.4716 35.4523 53.4578C35.6559 53.3851 35.7999 53.271 35.8986 53.1312C35.9973 52.992 36.0494 52.8271 36.068 52.6522C36.0865 52.4773 36.0714 52.2936 36.0344 52.1155C35.9973 51.9381 35.9384 51.7663 35.8698 51.6158C35.8006 51.4653 35.7142 51.3262 35.6175 51.1976C35.5209 51.0704 35.4146 50.9537 35.3056 50.849C35.1966 50.7443 35.0863 50.6515 34.9821 50.5713C34.8772 50.4904 34.7791 50.4221 34.6948 50.3669C34.6112 50.3111 34.5227 50.2497 34.4364 50.1838C34.3493 50.1167 34.2636 50.0459 34.1834 49.9707C34.1025 49.8948 34.0278 49.8158 33.9626 49.7324C33.8982 49.6497 33.8427 49.5631 33.8029 49.4747C33.7632 49.3863 33.7371 49.2841 33.722 49.1801C33.7056 49.0754 33.6994 48.9694 33.698 48.8747C33.6967 48.7794 33.7001 48.696 33.7035 48.6359C33.7076 48.5757 33.7117 48.5393 33.7117 48.5393Z" fill="#231F20"/>
<path d="M13.1939 38.2537C12.9656 38.4374 12.8025 38.6248 12.6873 38.8054C12.5721 38.9872 12.5056 39.1621 12.47 39.3214C12.435 39.4813 12.4309 39.6242 12.4412 39.7421C12.4522 39.8599 12.4762 39.9521 12.4967 40.0085C12.518 40.0656 12.5481 40.1201 12.5811 40.1709C12.6146 40.2211 12.651 40.2668 12.6853 40.3063C12.7188 40.3458 12.7497 40.3784 12.7723 40.4004L12.81 40.4355L12.8546 40.4712C12.8813 40.4944 12.9149 40.5258 12.9451 40.5615C12.9752 40.5973 13.0027 40.6374 13.015 40.6769C13.028 40.7164 13.026 40.7559 12.9992 40.7897C12.9718 40.8236 12.9225 40.8869 12.8662 40.9722C12.8107 41.0574 12.7483 41.164 12.6969 41.2857C12.6441 41.4073 12.6023 41.5433 12.5872 41.6869C12.5715 41.8292 12.5831 41.9803 12.638 42.1283C12.6702 42.2186 12.723 42.322 12.7943 42.428C12.8656 42.5339 12.9547 42.6418 13.0616 42.7415C13.1693 42.8412 13.294 42.9327 13.4359 43.0048C13.5771 43.0769 13.7348 43.1296 13.9083 43.1521C13.9501 43.1584 13.994 43.1615 14.0378 43.1628C14.0817 43.1653 14.1263 43.1647 14.1722 43.1628C14.2181 43.1603 14.2647 43.1559 14.3121 43.1496C14.36 43.1434 14.408 43.134 14.4574 43.1233C14.7069 43.0656 14.8941 42.964 15.0312 42.8343C15.1683 42.7057 15.256 42.549 15.3054 42.381C15.3541 42.2136 15.3657 42.0343 15.3506 41.8593C15.3349 41.685 15.2931 41.5151 15.2362 41.3653C15.1793 41.2154 15.0997 41.075 15.0058 40.9452C14.9126 40.8154 14.8063 40.6963 14.6953 40.5879C14.5849 40.48 14.4697 40.3835 14.36 40.2982C14.2504 40.2142 14.1455 40.1415 14.0557 40.0825C13.9652 40.023 13.8726 39.9584 13.7814 39.8888C13.6903 39.8192 13.6011 39.7452 13.5189 39.6668C13.4359 39.5891 13.3605 39.507 13.2981 39.423C13.2351 39.3383 13.185 39.2518 13.1521 39.1634C13.1185 39.0756 13.1048 38.9747 13.1028 38.8731C13.1007 38.7709 13.1096 38.6681 13.1233 38.5759C13.137 38.485 13.1549 38.4041 13.1693 38.3465C13.1836 38.2881 13.1939 38.2537 13.1939 38.2537Z" fill="#231F20"/>
<path d="M19.3843 37.063C19.1814 37.2354 19.0395 37.4128 18.9408 37.5834C18.842 37.7552 18.7879 37.92 18.7625 38.0711C18.7365 38.2222 18.7392 38.3583 18.7536 38.4699C18.768 38.5815 18.7947 38.6686 18.8167 38.7219C18.8386 38.7759 18.8681 38.8279 18.901 38.8768C18.9339 38.9244 18.9689 38.9683 19.0018 39.006C19.034 39.0436 19.0641 39.0737 19.0854 39.095L19.121 39.1282L19.1636 39.1627C19.1896 39.1846 19.2225 39.2147 19.2527 39.2486C19.2822 39.2824 19.3089 39.3213 19.3226 39.3589C19.3363 39.3972 19.3363 39.4342 19.313 39.4668C19.289 39.4987 19.2458 39.5583 19.1978 39.6379C19.1498 39.7182 19.0977 39.8191 19.0546 39.9339C19.012 40.0486 18.9785 40.1771 18.9702 40.3119C18.962 40.4473 18.9791 40.5897 19.0354 40.7314C19.0696 40.816 19.1224 40.9138 19.1923 41.0147C19.2616 41.1151 19.3493 41.2179 19.4515 41.3132C19.5543 41.4079 19.6729 41.4956 19.8059 41.5652C19.9396 41.6336 20.0863 41.685 20.2467 41.7075C20.2858 41.7132 20.3262 41.7169 20.3667 41.7188C20.4071 41.7213 20.4483 41.7213 20.4908 41.7195C20.5326 41.7176 20.5758 41.7138 20.6196 41.7075C20.6628 41.7013 20.7067 41.6937 20.752 41.6831C20.9796 41.6311 21.1489 41.5364 21.2709 41.4147C21.3923 41.2944 21.4663 41.1464 21.5054 40.9884C21.5438 40.8298 21.5472 40.6605 21.5252 40.495C21.504 40.3295 21.4588 40.1677 21.3998 40.026C21.3408 39.8837 21.2613 39.7508 21.1701 39.6279C21.079 39.5044 20.9754 39.3909 20.8692 39.2875C20.7622 39.1846 20.6519 39.0918 20.547 39.0116C20.4428 38.9301 20.3427 38.8611 20.257 38.8041C20.1713 38.747 20.0829 38.6849 19.9951 38.6179C19.9087 38.5508 19.8224 38.4793 19.7435 38.4047C19.664 38.3307 19.5913 38.253 19.5296 38.1733C19.4679 38.0931 19.4179 38.0103 19.3829 37.9269C19.3493 37.8436 19.3322 37.7483 19.3267 37.6517C19.3199 37.5545 19.3247 37.4567 19.3329 37.3702C19.3418 37.2824 19.3541 37.2059 19.3651 37.1508C19.3754 37.0956 19.3843 37.063 19.3843 37.063Z" fill="#231F20"/>
<path d="M25.0589 35.9731C24.878 36.1362 24.7525 36.3036 24.6682 36.4647C24.5839 36.6271 24.5407 36.7838 24.5228 36.9268C24.5057 37.0697 24.5139 37.1989 24.5318 37.3048C24.5503 37.4114 24.5777 37.4948 24.6003 37.5456C24.6222 37.597 24.6517 37.6465 24.6839 37.6917C24.7155 37.738 24.7504 37.7801 24.782 37.8158C24.8142 37.8515 24.8423 37.881 24.8636 37.9011L24.8978 37.933L24.9397 37.9663C24.9643 37.987 24.9959 38.0158 25.0247 38.0484C25.0535 38.081 25.0795 38.1174 25.0946 38.1525C25.1083 38.1888 25.1097 38.2246 25.0891 38.2547C25.0685 38.2848 25.0315 38.3412 24.9904 38.4171C24.9493 38.4923 24.9047 38.5882 24.869 38.6967C24.8348 38.8051 24.8087 38.9261 24.8067 39.0547C24.8046 39.1832 24.8259 39.3174 24.8834 39.4509C24.9191 39.533 24.9719 39.6265 25.0404 39.7224C25.109 39.8183 25.1933 39.9168 25.292 40.0077C25.3907 40.0986 25.5039 40.1826 25.63 40.249C25.7561 40.3155 25.8946 40.3644 26.0441 40.3876C26.0797 40.3932 26.1174 40.397 26.1544 40.3995C26.1921 40.4014 26.2305 40.402 26.2696 40.4001C26.308 40.3989 26.3478 40.3958 26.3882 40.3907C26.4273 40.3851 26.4684 40.3782 26.5095 40.3682C26.718 40.3205 26.8715 40.2321 26.9791 40.118C27.0868 40.0045 27.1498 39.8653 27.1793 39.7149C27.2088 39.565 27.2047 39.4045 27.1786 39.2465C27.1519 39.0898 27.1039 38.9368 27.0436 38.8008C26.9833 38.6653 26.9044 38.5381 26.8146 38.4202C26.7255 38.3017 26.6247 38.1932 26.5219 38.0942C26.4184 37.9957 26.3128 37.9073 26.2127 37.8296C26.1126 37.7525 26.018 37.686 25.9371 37.6321C25.8555 37.5775 25.7705 37.518 25.6876 37.454C25.6039 37.3901 25.521 37.3217 25.4442 37.2503C25.3681 37.1794 25.2975 37.1048 25.2372 37.0283C25.1769 36.9512 25.1275 36.8728 25.0925 36.7932C25.0583 36.7136 25.0391 36.6227 25.0288 36.5305C25.0199 36.439 25.0199 36.3462 25.024 36.2634C25.0288 36.1813 25.037 36.1086 25.0445 36.0565C25.0521 36.0051 25.0589 35.9731 25.0589 35.9731Z" fill="#231F20"/>
<path d="M30.2786 34.97C30.1168 35.1242 30.0072 35.2822 29.9352 35.4358C29.8632 35.59 29.8289 35.7393 29.8179 35.8747C29.807 36.0114 29.82 36.1349 29.8406 36.2352C29.8618 36.3361 29.8913 36.4158 29.9139 36.464C29.9359 36.5136 29.9653 36.5612 29.9969 36.6051C30.0284 36.6484 30.062 36.6885 30.0935 36.723C30.1237 36.7568 30.1525 36.785 30.1724 36.8045L30.2053 36.8346L30.245 36.8665C30.2684 36.8872 30.2992 36.9148 30.3266 36.9462C30.3554 36.9775 30.3815 37.012 30.3959 37.0465C30.4103 37.081 30.413 37.1142 30.3952 37.143C30.3767 37.1712 30.3438 37.2239 30.3088 37.2954C30.2732 37.3669 30.2354 37.4578 30.2073 37.56C30.1792 37.6634 30.16 37.7794 30.1635 37.901C30.1669 38.0233 30.1916 38.1518 30.2505 38.2797C30.2862 38.3568 30.3383 38.4465 30.4055 38.5374C30.4726 38.6283 30.5542 38.7224 30.6495 38.8095C30.7455 38.896 30.8538 38.9763 30.9731 39.0402C31.0924 39.1048 31.2233 39.1525 31.3625 39.175C31.3968 39.1807 31.431 39.1844 31.466 39.1869C31.501 39.1894 31.5373 39.1901 31.5729 39.1894C31.6086 39.1882 31.6449 39.1851 31.6819 39.1807C31.7196 39.1756 31.7567 39.1694 31.7944 39.1606C31.9856 39.1173 32.1241 39.0333 32.2194 38.9255C32.3154 38.8183 32.3682 38.6866 32.3901 38.5437C32.4114 38.402 32.4018 38.2484 32.3716 38.0985C32.3414 37.9493 32.2914 37.8032 32.2311 37.6734C32.1694 37.5449 32.0912 37.4239 32.0028 37.3111C31.915 37.1988 31.8177 37.0941 31.7176 37.0007C31.6189 36.9054 31.5174 36.8208 31.4214 36.7468C31.3255 36.6722 31.2357 36.6082 31.1582 36.5562C31.08 36.5035 30.9998 36.4458 30.9196 36.3838C30.8394 36.3223 30.7599 36.2571 30.6858 36.1888C30.6125 36.1205 30.5439 36.049 30.485 35.9762C30.426 35.9029 30.3774 35.8283 30.3417 35.753C30.3067 35.6766 30.2841 35.59 30.2718 35.5016C30.2594 35.4145 30.2553 35.3261 30.2567 35.2471C30.2581 35.1687 30.2636 35.0991 30.2684 35.0496C30.2738 35.0001 30.2786 34.97 30.2786 34.97Z" fill="#231F20"/>
<path d="M35.0955 34.0457C34.9508 34.1917 34.8542 34.3422 34.7931 34.4877C34.7314 34.6344 34.7047 34.7761 34.6999 34.9058C34.6944 35.0356 34.7109 35.1529 34.7335 35.2494C34.7568 35.346 34.787 35.4212 34.8096 35.4676C34.8329 35.5146 34.8617 35.5598 34.8932 35.6024C34.9248 35.6438 34.9577 35.6827 34.9878 35.7153C35.018 35.7479 35.0454 35.7748 35.0646 35.7943L35.0968 35.8231L35.1345 35.8538C35.1572 35.8726 35.1866 35.8996 35.2141 35.9291C35.2415 35.9591 35.2662 35.9924 35.2806 36.025C35.295 36.0576 35.2991 36.0896 35.2826 36.1165C35.2669 36.1441 35.2388 36.1943 35.2086 36.2626C35.1784 36.3309 35.1469 36.4162 35.1243 36.5146C35.1016 36.6124 35.0886 36.7228 35.0955 36.8394C35.103 36.9554 35.1311 37.0783 35.1908 37.2005C35.2271 37.2739 35.2785 37.3592 35.345 37.4463C35.4108 37.5341 35.491 37.6244 35.5829 37.7071C35.6754 37.7905 35.779 37.8676 35.8928 37.9297C36.0066 37.9918 36.13 38.0382 36.2609 38.0607C36.2924 38.0664 36.3247 38.0701 36.3576 38.0726C36.3905 38.0752 36.4234 38.0758 36.457 38.0752C36.4906 38.0745 36.5241 38.072 36.5584 38.0676C36.5927 38.0639 36.627 38.0576 36.6626 38.0494C36.8388 38.0081 36.9643 37.9303 37.0493 37.8281C37.1343 37.7266 37.1788 37.6012 37.1939 37.4651C37.2083 37.3297 37.1946 37.1842 37.1603 37.0419C37.1261 36.899 37.0733 36.7598 37.0116 36.6356C36.9506 36.5121 36.8731 36.3955 36.7867 36.2877C36.7017 36.1798 36.6071 36.0795 36.5111 35.9886C36.4151 35.8977 36.3178 35.8168 36.2252 35.7454C36.1327 35.6739 36.0463 35.6118 35.9716 35.5617C35.8976 35.5115 35.8201 35.4563 35.7433 35.3974C35.6672 35.3385 35.5911 35.2758 35.5205 35.2099C35.4492 35.1447 35.382 35.0764 35.3251 35.0055C35.2675 34.9353 35.2189 34.8638 35.1832 34.7911C35.1476 34.7184 35.1236 34.635 35.1085 34.5522C35.0941 34.4682 35.0872 34.3842 35.0852 34.309C35.0831 34.2344 35.0859 34.1679 35.0893 34.1209C35.092 34.0739 35.0955 34.0457 35.0955 34.0457Z" fill="#231F20"/>
<path d="M4.74921 28.3613L4.53571 28.7152L9.44751 35.801L9.71472 35.4348L4.74921 28.3613Z" fill="#DE781B"/>
<path d="M16.045 26.158L15.8541 26.4748L19.8331 33.2115L20.0664 32.8921L16.045 26.158Z" fill="#DE781B"/>
<path d="M26.0853 25.1592L25.9108 25.4478L29.1623 31.8614L29.3739 31.5714L26.0853 25.1592Z" fill="#DE781B"/>
<path d="M9.7968 35.4881L9.53281 35.8496L15.7146 34.1342L16.1053 33.7142L9.7968 35.4881Z" fill="#AB570F"/>
<path d="M20.1475 32.9404L19.9168 33.2558L25.5356 32.2818L25.8017 31.9367L20.1475 32.9404Z" fill="#AB570F"/>
<path d="M29.4532 31.6134L29.2469 31.8963L34.3578 31.5374L34.5959 31.2286L29.4532 31.6134Z" fill="#AB570F"/>
<path d="M9.1297 26.9392L8.77359 27.502L8.2642 29.4116L8.55058 29.1455L9.1297 26.9392Z" fill="#DE781B"/>
<path d="M19.9265 25.2742L19.6395 25.7736L19.1101 27.3933L19.3277 27.1907L19.9265 25.2742Z" fill="#DE781B"/>
<path d="M8.28033 29.4098C8.28033 29.4098 10.0792 30.0468 10.4343 31.5415C10.6516 32.4562 10.2883 32.6111 10.2883 32.6111L11.2906 31.7904L10.4761 29.6712L8.56689 29.1477L8.28033 29.4098Z" fill="#AB570F"/>
<path d="M19.1217 27.3914C19.1217 27.3914 20.5764 28.1018 20.9884 29.5852C21.1866 30.2986 20.5086 30.6541 20.5086 30.6541L22.0743 29.8328L21.2599 27.7137L19.3404 27.1914L19.1217 27.3914Z" fill="#AB570F"/>
<path d="M29.5871 24.7036L29.328 25.1557L28.7745 26.5596L28.9702 26.3761L29.5871 24.7036Z" fill="#DE781B"/>
<path d="M28.7824 26.5581C28.7824 26.5581 29.9382 27.1312 30.3125 28.387C30.5038 29.0309 29.9938 29.6616 29.9938 29.6616L31.4128 28.6121L30.6752 26.6917L28.9805 26.377L28.7824 26.5581Z" fill="#AB570F"/>
<path d="M12.1387 28.4073C12.1387 28.4073 13.1245 29.0694 13.4796 30.5654C13.6962 31.4795 13.0621 31.8444 13.0621 31.8444L15.0625 30.7848L14.2488 28.665L12.3251 28.1541L12.1387 28.4073Z" fill="#AB570F"/>
<path d="M22.5129 26.8684C22.5129 26.8684 23.2753 27.5687 23.6304 29.0646C23.8477 29.9794 23.2129 30.3437 23.2129 30.3437L24.935 29.432L23.9382 27.1881L22.7001 26.6157L22.5129 26.8684Z" fill="#AB570F"/>
<path d="M31.8657 26.365C31.8657 26.365 32.4628 26.9449 32.7652 28.2183C32.9496 28.9969 32.4436 29.3079 32.4436 29.3079L33.9107 28.5317L33.0613 26.6208L32.0248 26.1499L31.8657 26.365Z" fill="#AB570F"/>
<path d="M13.7212 26.5071L12.3316 28.1372C12.671 28.487 12.9582 28.8526 13.179 29.2087C13.4011 29.5654 13.5567 29.914 13.6321 30.2275C13.7075 30.5429 13.7027 30.8237 13.6012 31.045C13.4998 31.267 13.3017 31.4288 12.9918 31.5034C12.9548 31.5121 12.9171 31.5197 12.8807 31.5247C12.8444 31.5297 12.8081 31.5322 12.7724 31.5335C12.7361 31.5347 12.7004 31.5341 12.6655 31.5309C12.6298 31.5284 12.5949 31.524 12.5606 31.5172C12.309 31.4714 12.0814 31.3303 11.8915 31.1266C11.7023 30.9228 11.5501 30.657 11.4493 30.361C11.3485 30.0664 11.2985 29.7422 11.3115 29.4206C11.3246 29.1015 11.3986 28.7848 11.5467 28.5027L9.11025 26.9397L8.5673 29.1479C9.0129 29.3403 9.41875 29.6062 9.75535 29.9002C10.0926 30.1943 10.3627 30.519 10.5382 30.8287C10.7137 31.1391 10.7939 31.4363 10.7514 31.6758C10.7076 31.9153 10.5396 32.0971 10.2174 32.1748C10.168 32.1874 10.1187 32.1962 10.07 32.2031C10.0213 32.2093 9.97266 32.2137 9.92468 32.215C9.876 32.2162 9.82801 32.215 9.78003 32.2118C9.73204 32.2081 9.68474 32.2018 9.63743 32.1936C9.37281 32.1466 9.11916 32.0256 8.88539 31.8469C8.65162 31.6676 8.43773 31.4319 8.25195 31.1554C8.06754 30.8795 7.91055 30.5642 7.78921 30.2262C7.66924 29.8889 7.58492 29.5297 7.54447 29.1648L4.66382 28.3616L9.79168 35.4432L16.1048 33.7636L13.7212 26.5071Z" fill="#FFCB03"/>
<path d="M24.0017 25.2807L22.6998 26.6155C22.9843 26.9572 23.2222 27.3083 23.4025 27.6462C23.5835 27.9842 23.7062 28.3089 23.7597 28.5954C23.8131 28.8838 23.796 29.134 23.6966 29.3227C23.5979 29.5121 23.4148 29.6381 23.1379 29.6776L23.0584 29.6851L22.9802 29.6864L22.9034 29.6807L22.828 29.6688C22.5949 29.6224 22.3886 29.4857 22.2192 29.2901C22.0506 29.0951 21.9183 28.8425 21.8353 28.5654C21.7524 28.2889 21.7167 27.9879 21.7401 27.6945C21.7627 27.4036 21.8429 27.1189 21.991 26.8744L19.9117 25.2744L19.3407 27.1917C19.7232 27.4011 20.0673 27.6726 20.3511 27.9635C20.635 28.255 20.8584 28.5666 20.9997 28.8581C21.1409 29.1503 21.1992 29.423 21.1505 29.6318C21.1018 29.8419 20.9455 29.9886 20.6576 30.0293C20.6226 30.0343 20.5877 30.0375 20.5534 30.04C20.5191 30.0412 20.4848 30.0419 20.4505 30.0412C20.417 30.04 20.3827 30.0375 20.3491 30.0343C20.3155 30.0299 20.2819 30.0249 20.249 30.018C20.0049 29.9704 19.7753 29.8506 19.5662 29.6751C19.3571 29.5002 19.1693 29.2707 19.0088 29.0042C18.8491 28.7378 18.7175 28.4356 18.6208 28.1152C18.5255 27.7948 18.4638 27.4575 18.4433 27.1183L15.9616 26.1578L20.1427 32.8996L25.8019 31.9811L24.0017 25.2807Z" fill="#FFCB03"/>
<path d="M33.2598 25.0582L32.0252 26.1498C32.2679 26.4827 32.4667 26.82 32.6154 27.1404C32.7642 27.4614 32.8609 27.7648 32.8958 28.0282C32.9315 28.2927 32.9047 28.5172 32.8067 28.6777C32.7087 28.8395 32.538 28.9373 32.285 28.9473L32.2308 28.9485L32.1774 28.9454L32.1246 28.9391L32.0732 28.9297C31.8545 28.8833 31.6632 28.7498 31.5097 28.5617C31.3561 28.3742 31.2402 28.1335 31.1717 27.8714C31.1024 27.61 31.0798 27.3285 31.1107 27.0595C31.1422 26.7912 31.2279 26.5347 31.3753 26.3216L29.5764 24.7034L28.98 26.3767C29.3145 26.5987 29.6107 26.872 29.8527 27.1586C30.0947 27.4451 30.2818 27.746 30.3956 28.0206C30.5101 28.2959 30.5506 28.5454 30.4978 28.7291C30.4443 28.9134 30.2976 29.0319 30.0371 29.0426L29.9672 29.0432L29.8979 29.0401L29.8294 29.0319L29.7615 29.02C29.5339 28.9711 29.3214 28.8526 29.1308 28.6815C28.9402 28.5097 28.7716 28.2858 28.6317 28.0282C28.4919 27.7711 28.3802 27.4802 28.3027 27.1742C28.2252 26.8695 28.1827 26.5498 28.1786 26.2332L26.0054 25.1592L29.4489 31.5768L34.596 31.2689L33.2598 25.0582Z" fill="#FFCB03"/>
<path d="M14.4111 42.533C14.4866 42.6435 14.603 42.7086 14.7198 42.7122C14.8717 42.7147 15.0261 42.6122 15.0989 42.3671C15.2371 41.8974 14.8842 41.0408 14.3153 40.6559C14.9118 41.8919 14.0186 41.9527 14.4111 42.533Z" fill="url(#paint1_linear_44_7459)"/>
<path d="M26.4376 47.4476C26.5131 47.5581 26.6301 47.625 26.7464 47.6268C26.8982 47.6293 27.0526 47.5268 27.1254 47.2817C27.2655 46.8115 26.9102 45.9536 26.3436 45.57C26.9396 46.8044 26.0446 46.8655 26.4376 47.4476Z" fill="url(#paint2_linear_44_7459)"/>
<path d="M29.5206 54.7649C29.6028 54.8849 29.7274 54.9562 29.8564 54.9595C30.0215 54.9622 30.1893 54.8507 30.2684 54.5842C30.4185 54.0735 30.0346 53.1422 29.4178 52.7235C30.0648 54.0677 29.0932 54.132 29.5206 54.7649Z" fill="url(#paint3_linear_44_7459)"/>
<path d="M20.3809 49.1147C20.4591 49.2287 20.5775 49.2964 20.7 49.2995C20.8568 49.302 21.0162 49.196 21.0911 48.9428C21.234 48.4594 20.87 47.5727 20.2821 47.1756C20.8974 48.4522 19.9751 48.5156 20.3809 49.1147Z" fill="url(#paint4_linear_44_7459)"/>
<path d="M35.0903 52.9854C35.1684 53.0995 35.2868 53.1672 35.4094 53.1703C35.5662 53.1728 35.7257 53.0668 35.8007 52.8136C35.9432 52.3283 35.5799 51.4431 34.9919 51.0458C35.6071 52.3229 34.6845 52.3861 35.0903 52.9854Z" fill="url(#paint5_linear_44_7459)"/>
<path d="M20.6075 41.1504C20.6756 41.2499 20.7793 41.3106 20.8858 41.3118C21.0226 41.3141 21.1618 41.2217 21.2274 41.0008C21.352 40.5774 21.0352 39.8034 20.5228 39.458C21.0583 40.571 20.2533 40.6257 20.6075 41.1504Z" fill="url(#paint6_linear_44_7459)"/>
<path d="M26.3372 39.9084C26.4027 40.0043 26.5042 40.0625 26.6051 40.0641C26.737 40.0664 26.8722 39.9755 26.9361 39.7643C27.056 39.3551 26.7486 38.6115 26.2553 38.2785C26.7735 39.3502 25.9968 39.4042 26.3372 39.9084Z" fill="url(#paint7_linear_44_7459)"/>
<path d="M31.5401 38.6761C31.6034 38.7682 31.6992 38.8229 31.7983 38.8253C31.9251 38.8272 32.0554 38.741 32.1159 38.5362C32.2305 38.1437 31.936 37.4282 31.4617 37.1071C31.9603 38.1392 31.2125 38.19 31.5401 38.6761Z" fill="url(#paint8_linear_44_7459)"/>
<path d="M32.0142 45.8476C32.0789 45.9459 32.1805 46.0029 32.284 46.0056C32.4166 46.0079 32.551 45.917 32.6147 45.7032C32.7357 45.2933 32.4268 44.5458 31.931 44.211C32.4518 45.2883 31.6721 45.3407 32.0142 45.8476Z" fill="url(#paint9_linear_44_7459)"/>
<path d="M36.4916 37.6378C36.5467 37.7189 36.6309 37.7659 36.7153 37.7684C36.8264 37.7698 36.938 37.6956 36.99 37.5171C37.0913 37.1785 36.8357 36.5594 36.4241 36.2815C36.8562 37.1747 36.2102 37.2178 36.4916 37.6378Z" fill="url(#paint10_linear_44_7459)"/>
<path d="M37.133 44.3812C37.1918 44.4669 37.2808 44.5179 37.373 44.5202C37.4909 44.5221 37.6108 44.4424 37.6673 44.2519C37.7758 43.8866 37.5011 43.2213 37.0589 42.9226C37.5216 43.8829 36.8278 43.9305 37.133 44.3812Z" fill="url(#paint11_linear_44_7459)"/>
<path d="M45.7808 17.5922C44.047 3.55953 23.5013 1.4987 15.6525 13.401C15.0321 14.3427 18.2884 18.9735 18.2884 18.9735C22.608 19.1948 27.6591 22.0964 33.2422 23.645C34.0086 23.8575 35.4825 27.3698 36.0988 27.7133C37.5131 27.5491 34.4309 24.5196 34.8594 24.5089C32.0438 19.5753 41.8574 14.0041 45.7808 17.5922Z" fill="#D1D3D4"/>
<path d="M45.5699 17.614C45.5699 17.614 45.5452 17.4748 45.4979 17.2134C45.4746 17.0823 45.4458 16.9212 45.4122 16.7318C45.3786 16.5419 45.3457 16.3237 45.271 16.0854C45.2052 15.8466 45.1318 15.5814 45.053 15.293C44.9714 15.0052 44.8377 14.7067 44.7212 14.3814C44.6128 14.0516 44.4325 13.7249 44.2639 13.3732C44.1069 13.0158 43.8752 12.671 43.6524 12.303C42.7454 10.8378 41.2667 9.34934 39.3451 8.19886C38.3792 7.63083 37.3015 7.16437 36.167 6.79571C35.031 6.4258 33.8217 6.20825 32.6076 6.08223C31.3921 5.95056 30.1602 5.97815 28.9653 6.09414C27.767 6.20072 26.6077 6.45151 25.5198 6.77001C25.249 6.85402 24.9803 6.93803 24.7143 7.02079C24.4558 7.11985 24.1994 7.21829 23.9451 7.31546C23.6887 7.40637 23.4453 7.51735 23.2068 7.63083C22.9675 7.74243 22.731 7.85215 22.4979 7.96061C21.5944 8.44337 20.7628 8.93679 20.0642 9.4741C18.6541 10.528 17.6525 11.6045 17.052 12.3751C16.8895 12.5575 16.7585 12.7487 16.6434 12.913C16.5282 13.0766 16.4302 13.2158 16.3506 13.3281C16.1916 13.5538 16.1073 13.6741 16.1073 13.6741L15.1982 13.1281C15.1982 13.1281 15.2853 13.0089 15.4485 12.7857C15.53 12.6741 15.6301 12.5368 15.7487 12.3751C15.8653 12.2133 15.9976 12.0271 16.1827 11.8221C16.3589 11.6164 16.5549 11.3882 16.7675 11.1406C16.982 10.8948 17.2418 10.6597 17.5044 10.3914C17.7615 10.1192 18.0734 9.8647 18.3956 9.59009C18.5595 9.45592 18.7158 9.30608 18.8967 9.17504C19.0777 9.04275 19.2621 8.90795 19.4507 8.77002C20.2013 8.2139 21.0891 7.70356 22.0516 7.21013C22.2998 7.09916 22.5514 6.98694 22.8057 6.87345C23.0594 6.75747 23.3178 6.64461 23.59 6.55308C23.8587 6.45464 24.1309 6.35558 24.4051 6.25527C24.6862 6.17251 24.97 6.0885 25.2558 6.00448C26.4055 5.68661 27.6258 5.44272 28.8824 5.34993C30.1362 5.24711 31.4244 5.23896 32.6933 5.39507C33.9602 5.54554 35.2182 5.7932 36.3994 6.19696C37.5778 6.6001 38.6946 7.10543 39.6934 7.71421C41.6808 8.9462 43.1951 10.5255 44.1097 12.0616C44.3352 12.4472 44.5676 12.8089 44.7239 13.182C44.8932 13.5487 45.0722 13.8898 45.1784 14.2315C45.2936 14.5701 45.4245 14.8804 45.504 15.1782C45.5801 15.476 45.6501 15.75 45.7131 15.997C45.7851 16.2428 45.8153 16.4679 45.8468 16.6635C45.8777 16.8579 45.9044 17.024 45.9257 17.1582C45.9688 17.4271 45.9915 17.5701 45.9915 17.5701L45.5699 17.614Z" fill="#231F20"/>
<path d="M45.6303 17.7295C45.6303 17.7295 45.583 17.6926 45.4932 17.6236C45.4021 17.5565 45.2814 17.443 45.0929 17.3408C44.7391 17.1132 44.1722 16.8487 43.4311 16.7346C42.6948 16.6179 41.7982 16.6305 40.8802 16.8499C39.9588 17.0524 39.0244 17.4443 38.1853 17.954C37.3531 18.4738 36.6168 19.1183 36.1068 19.8211C35.5844 20.5177 35.3205 21.2675 35.256 21.9039C35.2567 22.0644 35.2409 22.2174 35.2512 22.3622C35.2704 22.5064 35.2711 22.6443 35.2999 22.771C35.3294 22.8976 35.3568 23.0155 35.3822 23.1252C35.4199 23.2249 35.4541 23.3158 35.485 23.3986C35.5001 23.4406 35.5138 23.4794 35.5275 23.5164C35.5494 23.5591 35.57 23.5986 35.5892 23.6356C35.6269 23.7095 35.6598 23.7722 35.6865 23.823C35.7393 23.9252 35.7674 23.9791 35.7674 23.9791L34.7755 24.3873C34.7755 24.3873 34.7494 24.3315 34.7007 24.228C34.6767 24.176 34.6466 24.112 34.6116 24.0368C34.5945 23.9998 34.5753 23.9591 34.5554 23.9158C34.5376 23.8638 34.5184 23.8086 34.4978 23.7497C34.4594 23.6318 34.4169 23.5014 34.3703 23.3591C34.3436 23.2192 34.3148 23.0681 34.2846 22.907C34.2565 22.7453 34.2586 22.5691 34.2448 22.3866C34.2407 22.2036 34.2654 22.0111 34.2771 21.8111C34.3895 21.0167 34.759 20.1308 35.3883 19.3603C36.006 18.5797 36.8478 17.9045 37.7754 17.3728C38.7105 16.8518 39.7333 16.4681 40.7404 16.2838C41.7426 16.0831 42.7257 16.1013 43.5346 16.2606C44.3491 16.4173 44.9715 16.7358 45.3548 17.0023C45.5577 17.1245 45.6879 17.2543 45.7846 17.3321C45.8799 17.4123 45.9306 17.4549 45.9306 17.4549L45.6303 17.7295Z" fill="#231F20"/>
<path d="M22.2575 15.3186C21.5489 19.3499 29.1209 25.4439 31.0247 23.6835C32.7365 17.3177 39.103 14.3234 44.7134 16.0867C42.7448 10.0804 38.0422 7.70105 33.4249 7.71643C28.1553 7.7326 23.0236 10.8732 22.2575 15.3186Z" fill="url(#paint12_linear_44_7459)"/>
<path d="M25.3212 19.9208C23.6972 10.5 16.2296 2.85981 2.78058 1.31372C7.97288 6.84355 10.0528 12.6116 9.00188 19.7672C8.84284 20.8487 25.156 19.9208 25.3212 19.9208Z" fill="#007236"/>
<path d="M2.80213 1.12085C2.80213 1.12085 3.31492 1.18167 4.21161 1.28762C4.43578 1.31646 4.68532 1.33903 4.95405 1.38041C5.22141 1.42932 5.51071 1.48261 5.81989 1.53903C6.12907 1.59546 6.45813 1.65628 6.80502 1.7196C7.14984 1.7917 7.50564 1.89202 7.88132 1.98355C8.25425 2.08261 8.64981 2.16537 9.04606 2.28888C9.44093 2.41678 9.84951 2.5497 10.2691 2.68638C10.4782 2.75785 10.6955 2.81742 10.9046 2.90143C11.1137 2.98607 11.3255 3.07196 11.5401 3.15848C11.9644 3.33842 12.4134 3.49516 12.8433 3.70394C14.5887 4.49893 16.3306 5.56039 17.9245 6.78924C18.3105 7.11024 18.6958 7.43187 19.0797 7.75163C19.4478 8.08642 19.7892 8.44379 20.1423 8.78549C20.3116 8.96167 20.5015 9.12154 20.653 9.309C20.8093 9.49271 20.9649 9.67578 21.1198 9.8576C21.2748 10.0394 21.429 10.2206 21.5819 10.3999L21.8102 10.6683L22.011 10.951C22.2777 11.3272 22.5403 11.6971 22.7967 12.0589C22.9324 12.2363 23.038 12.4269 23.1463 12.6125C23.2546 12.7987 23.3623 12.9824 23.4678 13.1636C23.5734 13.3454 23.6776 13.5241 23.7804 13.7003C23.8319 13.7887 23.8826 13.8764 23.9333 13.963C23.9792 14.0514 24.0183 14.1423 24.0608 14.2307C24.2281 14.5862 24.3885 14.9297 24.5434 15.2595C24.6202 15.4244 24.6963 15.5855 24.7704 15.7435C24.843 15.9022 24.8924 16.0664 24.952 16.2219C25.0658 16.5348 25.1741 16.832 25.2756 17.111C25.3723 17.3899 25.482 17.6526 25.5485 17.8928C25.6129 18.1335 25.6718 18.3542 25.7253 18.5536C25.9392 19.3511 26.0612 19.8069 26.0612 19.8069L25.0028 20.0345C25.0028 20.0345 24.8903 19.5762 24.6943 18.7749C24.6449 18.5749 24.5907 18.353 24.5318 18.111C24.4708 17.8708 24.3734 17.6313 24.2871 17.3636C24.1966 17.0978 24.1006 16.8156 23.9991 16.5178C23.9457 16.3699 23.9038 16.2144 23.8373 16.0614C23.7695 15.9084 23.7002 15.7517 23.6289 15.5918C23.4877 15.2721 23.3396 14.9385 23.1874 14.5937C23.1484 14.5078 23.1127 14.4194 23.0702 14.3329C23.0229 14.2489 22.9756 14.1642 22.9283 14.0783C22.833 13.9072 22.7364 13.7329 22.6383 13.5567C22.541 13.3805 22.4416 13.2012 22.3408 13.0206C22.2414 12.8388 22.1434 12.6532 22.0165 12.4808C21.7773 12.1278 21.5325 11.7673 21.2837 11.4006L21.0958 11.1241L20.8813 10.8614C20.738 10.6858 20.5933 10.5084 20.448 10.331C20.3027 10.1523 20.156 9.97296 20.0093 9.79302C19.8674 9.6087 19.6871 9.45195 19.5273 9.27891C19.1942 8.94286 18.8719 8.59113 18.523 8.26072C18.1583 7.9441 17.7922 7.62686 17.4261 7.30899C15.909 6.09142 14.239 5.02684 12.554 4.21993C12.1385 4.00865 11.7046 3.84814 11.2933 3.66444C11.0855 3.57604 10.8806 3.48827 10.6776 3.40112C10.4747 3.31522 10.2636 3.25378 10.0613 3.1798C9.65276 3.03873 9.25583 2.9008 8.87193 2.76788C8.48597 2.63998 8.10001 2.55158 7.73598 2.44813C7.3699 2.35158 7.02233 2.24625 6.68505 2.16913C6.3457 2.10017 6.0235 2.03496 5.72049 1.97415C5.41748 1.91271 5.13435 1.85503 4.87247 1.80173C4.60853 1.75659 4.36311 1.72963 4.14305 1.69703C3.26144 1.57603 2.75757 1.50706 2.75757 1.50706L2.80213 1.12085Z" fill="#231F20"/>
<path d="M2.93027 1.17676C2.93027 1.17676 3.17021 1.40497 3.58977 1.80435C3.99972 2.21062 4.56392 2.81188 5.16926 3.58305C5.32967 3.77051 5.47227 3.98054 5.62651 4.19371C5.77802 4.40876 5.94186 4.62694 6.09748 4.85892C6.39021 5.33102 6.72475 5.81818 7.00446 6.3536C7.60773 7.40565 8.13286 8.58183 8.56475 9.78623C9.01447 10.9875 9.3072 12.2339 9.52314 13.4101C9.61226 14.0007 9.70824 14.5719 9.73703 15.1204C9.75691 15.3938 9.78708 15.659 9.79599 15.9173C9.79873 16.1756 9.80216 16.4252 9.8049 16.6647C9.82409 17.1418 9.78296 17.5888 9.75897 17.9832C9.74594 18.1807 9.73429 18.3656 9.72263 18.5368C9.70001 18.6998 9.67876 18.8503 9.65956 18.9857C9.58278 19.528 9.53959 19.8384 9.53959 19.8384L8.46329 19.696C8.46329 19.696 8.51676 19.3869 8.61137 18.8471C8.63468 18.7123 8.66073 18.5625 8.68952 18.4001C8.7046 18.2421 8.72037 18.0716 8.73819 17.8891C8.7711 17.5236 8.82457 17.1142 8.82046 16.6534C8.82594 16.4239 8.83143 16.185 8.83691 15.938C8.83623 15.691 8.81498 15.4358 8.80538 15.1725C8.79509 14.6458 8.72037 14.0947 8.65387 13.5223C8.48317 12.3837 8.24049 11.1693 7.84288 9.99125C7.4624 8.81068 6.98937 7.65079 6.43546 6.61066C6.18043 6.08025 5.8692 5.59748 5.59909 5.12789C5.45581 4.89716 5.30225 4.68086 5.16172 4.46707C5.01844 4.25453 4.88544 4.04512 4.73531 3.85891C4.17042 3.09025 3.63912 2.48837 3.25248 2.08084C2.85623 1.68021 2.63 1.45137 2.63 1.45137L2.93027 1.17676Z" fill="#231F20"/>
<path d="M4.94739 1.87202C8.82551 3.66099 14.0963 11.2052 13.9142 19.1072C13.8876 20.1842 23.5769 19.1479 23.7296 19.1398C22.1752 11.2596 15.3401 3.48936 4.94739 1.87202Z" fill="url(#paint13_linear_44_7459)"/>
<path d="M0.369335 1.80834C0.513145 0.867384 1.44705 0.19684 2.45344 0.310141C3.46195 0.423041 4.16244 1.27527 4.01853 2.21686C3.87492 3.15656 2.94236 3.82725 1.93443 3.71505C0.926014 3.60153 0.226295 2.74874 0.369335 1.80834Z" fill="#FFCB03"/>
<path d="M0.0136268 1.75184L0.688201 1.8321C0.787605 1.1324 1.4423 0.622681 2.19091 0.622681C2.25672 0.622681 2.32391 0.626443 2.39109 0.634593C3.15616 0.725503 3.71419 1.32363 3.71419 2.01015C3.71419 2.07034 3.71008 2.13116 3.70116 2.1926C3.60176 2.89167 2.94707 3.40201 2.1964 3.40201C2.13127 3.40201 2.06477 3.39825 1.99759 3.3901C1.23252 3.29919 0.675176 2.70044 0.675176 2.01454C0.675176 1.95435 0.679289 1.89354 0.688201 1.8321L0.0136268 1.75184C0.00128706 1.83962 -0.00488281 1.92739 -0.00488281 2.01454C-0.00488281 3.01079 0.802002 3.87349 1.90915 4.00704C2.00582 4.01832 2.10179 4.02396 2.1964 4.02396C3.28641 4.02396 4.22972 3.28603 4.37505 2.27348C4.38808 2.18508 4.39425 2.0973 4.39425 2.01015C4.39356 1.01328 3.58668 0.151204 2.47953 0.0182874C2.38286 0.00700199 2.2862 0.000732422 2.19091 0.000732422C1.10296 0.00135939 0.159648 0.73867 0.0136268 1.75184Z" fill="#231F20"/>
<path d="M2.31971 2.77111C2.53188 3.07859 3.06263 2.94213 3.26272 2.29218C3.46545 1.64203 2.99234 1.16469 2.67353 1.07374C3.03012 2.16216 1.93006 2.20538 2.31971 2.77111Z" fill="url(#paint14_linear_44_7459)"/>
<path d="M48.8491 26.7655C46.4504 16.9027 33.8487 17.929 29.224 20.8137C27.3601 21.9755 40.4916 33.1611 40.4916 33.1611C42.0931 30.0959 42.1061 25.9561 48.8491 26.7655Z" fill="#ED1C24"/>
<path d="M48.6411 26.8031C48.6411 26.8031 48.6178 26.7191 48.5747 26.5617C48.526 26.4062 48.478 26.1711 48.3752 25.8839C48.1798 25.3078 47.8418 24.4952 47.2399 23.6237C46.6407 22.756 45.7626 21.8369 44.606 21.1071C44.3263 20.9134 44.013 20.7554 43.7066 20.5823C43.3844 20.4319 43.0684 20.2645 42.7263 20.1378C42.0551 19.8582 41.3394 19.645 40.6121 19.4826C37.6875 18.8193 34.5882 19.1265 32.4993 19.8124C31.447 20.1403 30.621 20.5472 30.0979 20.8538C29.9663 20.9328 29.8518 20.9924 29.7469 21.0632C29.642 21.1347 29.5529 21.1955 29.4802 21.2444C29.3349 21.3435 29.2581 21.3955 29.2581 21.3955L28.6205 20.5898C28.6205 20.5898 28.6994 20.5391 28.8468 20.4444C28.9208 20.3967 29.012 20.3384 29.1189 20.2695C29.2273 20.2005 29.3753 20.124 29.5282 20.0375C30.1479 19.6952 31.0446 19.2851 32.1929 18.9579C34.4641 18.277 37.7348 18.0387 40.8013 18.8137C41.565 19.0036 42.3143 19.2475 43.0163 19.561C43.3734 19.7039 43.7052 19.8895 44.0405 20.0576C44.3613 20.2488 44.6869 20.425 44.9783 20.6375C46.1821 21.4419 47.085 22.44 47.6896 23.3704C48.297 24.3046 48.624 25.1629 48.8098 25.7667C48.9078 26.0683 48.951 26.3128 48.9963 26.4758C49.036 26.6401 49.0573 26.7272 49.0573 26.7272L48.6411 26.8031Z" fill="#231F20"/>
<path d="M48.7905 26.952C48.7905 26.952 48.589 26.9137 48.2366 26.8466C48.0604 26.8115 47.8424 26.8046 47.5949 26.777C47.4715 26.7582 47.3392 26.7708 47.2008 26.7683C47.0616 26.7733 46.9149 26.7607 46.7641 26.7802C46.158 26.819 45.4657 26.9852 44.8041 27.3031C44.1412 27.6197 43.5167 28.0999 43.0306 28.6893C42.8962 28.8253 42.7872 28.9827 42.6789 29.1382C42.5733 29.2955 42.4486 29.4385 42.3608 29.6046C42.1805 29.9319 41.9831 30.2429 41.8535 30.5758C41.7815 30.7376 41.7102 30.8974 41.641 31.0536C41.5807 31.2134 41.5306 31.3739 41.4765 31.5275C41.4237 31.6818 41.373 31.831 41.3229 31.9764C41.277 32.1219 41.2475 32.2648 41.2105 32.4003C41.1433 32.6749 41.0727 32.9175 41.0247 33.1457C40.9829 33.3796 40.9459 33.5827 40.9157 33.7508C40.8547 34.0862 40.8204 34.2774 40.8204 34.2774L39.7516 34.0906C39.7516 34.0906 39.7969 33.9006 39.875 33.5683C39.9148 33.4022 39.9621 33.2003 40.017 32.9689C40.0787 32.7351 40.1698 32.4642 40.2583 32.1739C40.3056 32.0291 40.3467 31.8749 40.405 31.7213C40.466 31.5689 40.5291 31.4115 40.5942 31.2492C40.66 31.088 40.7231 30.9213 40.7964 30.7526C40.8801 30.5877 40.9657 30.4191 41.0521 30.2479C41.2105 29.8999 41.4429 29.5658 41.6588 29.2209C41.763 29.0466 41.9097 28.8905 42.0352 28.7238C42.1634 28.5589 42.2916 28.394 42.4499 28.2466C43.0217 27.6209 43.7552 27.1062 44.521 26.7839C45.286 26.4579 46.0696 26.3112 46.736 26.2974C46.9019 26.2849 47.0616 26.3043 47.2124 26.3062C47.3632 26.315 47.5079 26.3093 47.6402 26.3344C47.9048 26.3758 48.1386 26.3946 48.3244 26.4403C48.6952 26.5281 48.9071 26.5783 48.9071 26.5783L48.7905 26.952Z" fill="#231F20"/>
<path d="M31.3268 21.5745C28.6028 23.1654 34.7885 28.9387 36.6484 26.6041C39.2157 23.3736 44.5025 22.2751 48.0944 25.6475C46.0892 21.3324 41.9506 19.7412 37.9611 19.8137C35.505 19.8551 33.1122 20.5239 31.3268 21.5745Z" fill="url(#paint15_linear_44_7459)"/>
<path d="M30.1211 21.2664C20.0834 16.0056 8.25501 16.4212 7.83957 16.8012C7.21367 17.373 8.30094 23.3197 8.89804 23.8658C9.49515 24.4119 10.8573 24.684 13.0764 24.6746C17.2205 24.6577 24.2693 23.6226 33.0847 27.8032C40.215 31.1844 40.2548 37.6985 40.444 37.2296C40.9801 35.9042 40.9438 35.9901 41.2989 34.0214C41.1467 30.6251 36.1415 24.4219 30.1211 21.2664Z" fill="white"/>
<path d="M29.9321 21.5687L30.3105 20.9643C22.8347 17.0495 14.4313 16.2514 10.316 16.2495C9.57561 16.2495 8.97439 16.2752 8.53427 16.3147C8.31352 16.3354 8.13391 16.358 7.98926 16.3862C7.91591 16.4 7.85215 16.415 7.78977 16.4351C7.7267 16.4589 7.66569 16.4733 7.5704 16.5548C7.4799 16.6389 7.43397 16.726 7.39695 16.8138C7.34417 16.9461 7.31675 17.0865 7.29755 17.247C7.27904 17.4075 7.27081 17.5862 7.27081 17.7824C7.2715 18.7542 7.46825 20.1743 7.72396 21.4251C7.85215 22.0502 7.99475 22.6308 8.13871 23.0916C8.21069 23.3217 8.28268 23.5223 8.35671 23.6891C8.39373 23.7725 8.43144 23.8477 8.47326 23.9167C8.51645 23.9856 8.56032 24.0483 8.62887 24.1123C9.00455 24.4527 9.55024 24.6678 10.2639 24.812C10.9789 24.9549 11.8729 25.0233 12.9677 25.0233H13.0787C14.4875 25.017 16.1932 24.8979 18.173 24.8979C22.1053 24.8991 27.1097 25.3637 32.9101 28.1123C36.2631 29.7042 37.9921 31.992 38.9203 33.8948C39.3837 34.8453 39.6435 35.6979 39.7985 36.3143C39.8759 36.6227 39.9273 36.871 39.9657 37.0497C39.9856 37.14 40.0014 37.2102 40.0206 37.2741C40.0309 37.3074 40.0391 37.3368 40.0624 37.3839C40.0754 37.4071 40.0898 37.4365 40.131 37.4804C40.1529 37.5023 40.1831 37.5293 40.231 37.555C40.2777 37.5801 40.3483 37.6027 40.4251 37.602C40.5128 37.6027 40.5937 37.5726 40.6424 37.5412C40.7185 37.4929 40.7452 37.4503 40.7651 37.4215C40.7843 37.3914 40.7939 37.3694 40.8014 37.3506C41.0681 36.6904 41.2011 36.3638 41.3101 35.9481C41.4177 35.5343 41.4972 35.061 41.6755 34.0785L41.6817 34.0428L41.6803 34.007C41.6371 33.0848 41.2772 32.0252 40.678 30.8879C39.7786 29.1844 38.3341 27.3098 36.5414 25.5555C34.7488 23.8013 32.6085 22.1687 30.3105 20.9643L29.9321 21.5687C32.8882 23.1179 35.616 25.4308 37.6102 27.7681C38.6077 28.9361 39.4221 30.1098 39.9918 31.1907C40.5628 32.271 40.8857 33.2597 40.9186 34.0359L41.2991 34.0214L40.9234 33.9644C40.7452 34.95 40.6657 35.4183 40.569 35.7851C40.473 36.1506 40.3558 36.4434 40.0871 37.1086L40.3709 37.2052L40.1275 37.0409C40.096 37.0817 40.0912 37.0992 40.0871 37.1086L40.3709 37.2052L40.1275 37.0409L40.4182 37.2371L40.2166 36.9632C40.1693 36.9933 40.1447 37.0208 40.1275 37.0409L40.4182 37.2371L40.2166 36.9632L40.4251 37.2459V36.9055C40.3407 36.9049 40.2626 36.9337 40.2166 36.9632L40.4251 37.2459L40.6101 36.9506C40.5663 36.9262 40.4984 36.9049 40.4251 36.9055V37.2459L40.6101 36.9506L40.434 37.2315L40.737 37.0622C40.7205 37.0409 40.6986 37.0002 40.6101 36.9506L40.434 37.2315L40.737 37.0622L40.5128 37.1876L40.7582 37.0998L40.737 37.0622L40.5128 37.1876L40.7582 37.0998L40.6698 37.1312L40.7596 37.1036L40.7582 37.0998L40.6698 37.1312L40.7596 37.1036C40.7582 37.1023 40.7445 37.0528 40.7294 36.9864C40.6705 36.7274 40.567 36.1776 40.3496 35.4722C40.0233 34.4114 39.4386 32.9807 38.3403 31.5311C37.2421 30.0822 35.6269 28.6158 33.2604 27.4941C27.3325 24.6809 22.1718 24.1994 18.173 24.2007C16.1609 24.2007 14.4409 24.3211 13.0753 24.3261C13.039 24.3261 13.0033 24.3261 12.9677 24.3267C11.9085 24.3267 11.0605 24.2584 10.4264 24.1311C9.79087 24.0057 9.37886 23.8163 9.16771 23.6195L9.14029 23.6446L9.17045 23.622L9.16771 23.6195L9.14029 23.6446L9.17045 23.622C9.16086 23.6151 9.09916 23.5192 9.04294 23.3812C8.93874 23.1367 8.81808 22.753 8.70223 22.3003C8.5281 21.6207 8.35946 20.78 8.23537 19.9643C8.11129 19.1498 8.03245 18.3567 8.03245 17.7824C8.03245 17.5448 8.04685 17.3448 8.07221 17.2069C8.08455 17.1385 8.09964 17.0859 8.11198 17.0564L8.12363 17.032L8.09415 17.0163L8.12089 17.0351L8.12363 17.032L8.09415 17.0163L8.12089 17.0351L8.01943 16.9655L8.10923 17.0476L8.12089 17.0351L8.01943 16.9655L8.10923 17.0476L7.92551 16.8796L8.04685 17.0909C8.05576 17.0859 8.07495 17.0777 8.10923 17.0476L7.92551 16.8796L8.04685 17.0909L8.00366 17.0157L8.04068 17.0934L8.04685 17.0909L8.00366 17.0157L8.04068 17.0934C8.04136 17.0922 8.12432 17.0683 8.24291 17.0514C8.60762 16.995 9.33704 16.9461 10.316 16.9461C14.3312 16.9442 22.6373 17.7423 29.9321 21.5687Z" fill="#231F20"/>
<path d="M47.7996 27.0898C47.9131 26.3427 48.6542 25.8102 49.4541 25.9004C50.254 25.99 50.811 26.6659 50.6959 27.4141C50.5826 28.1599 49.8415 28.6924 49.0416 28.6028C48.241 28.5132 47.6855 27.8361 47.7996 27.0898Z" fill="#FFCB03"/>
<path d="M47.5181 27.0445L48.0529 27.1085C48.1317 26.553 48.6513 26.1486 49.2457 26.1486C49.2978 26.1486 49.3513 26.1517 49.4047 26.158C50.0121 26.2301 50.455 26.7047 50.455 27.2495C50.455 27.2972 50.4516 27.3461 50.4447 27.395C50.3659 27.9499 49.8462 28.3549 49.2505 28.3549C49.1984 28.3549 49.1456 28.3517 49.0921 28.3455C48.4847 28.2727 48.0426 27.7975 48.0426 27.2533C48.0426 27.2057 48.046 27.1574 48.0529 27.1085L47.5181 27.0445C47.5079 27.1147 47.5031 27.1843 47.5031 27.2533C47.5031 28.0439 48.1433 28.7285 49.0222 28.8345C49.099 28.8439 49.1751 28.8483 49.2505 28.8483C50.1157 28.8483 50.8643 28.2621 50.9794 27.4589C50.9897 27.3887 50.9945 27.3185 50.9945 27.2495C50.9945 26.4583 50.3535 25.7743 49.4747 25.6683C49.3979 25.6596 49.3218 25.6545 49.2457 25.6545C48.3819 25.6552 47.6333 26.2401 47.5181 27.0445Z" fill="#231F20"/>
<path d="M49.3483 27.8538C49.5166 28.096 49.9381 27.9896 50.0969 27.4736C50.2579 26.9575 49.8823 26.5786 49.6292 26.5064C49.9102 27.3706 49.039 27.4047 49.3483 27.8538Z" fill="url(#paint16_linear_44_7459)"/>
<path d="M44.6135 17.4821C44.7277 16.7351 45.4686 16.2032 46.2679 16.2927C47.0685 16.3824 47.6248 17.0589 47.5105 17.8065C47.3965 18.5522 46.6561 19.0842 45.8554 18.9952C45.0555 18.9056 44.5 18.2285 44.6135 17.4821Z" fill="#FFCB03"/>
<path d="M44.3319 17.4372L44.8666 17.5012C44.9455 16.945 45.4651 16.5413 46.0595 16.5413C46.1123 16.5413 46.1651 16.5444 46.2185 16.5507C46.8266 16.6228 47.2688 17.0974 47.2688 17.6422C47.2688 17.6899 47.2654 17.7388 47.2585 17.7877C47.1797 18.3425 46.66 18.7469 46.0643 18.7469C46.0122 18.7469 45.9594 18.7438 45.9059 18.7375C45.2992 18.6654 44.8564 18.1902 44.8564 17.646C44.8564 17.5983 44.8598 17.5501 44.8666 17.5012L44.3319 17.4372C44.3216 17.5074 44.3168 17.577 44.3168 17.646C44.3168 18.4366 44.9571 19.1212 45.836 19.2266C45.9128 19.236 45.9889 19.2404 46.0643 19.2404C46.9294 19.2404 47.6781 18.6548 47.7939 17.8516C47.8035 17.7814 47.809 17.7112 47.809 17.6422C47.8083 16.851 47.1673 16.167 46.2885 16.061C46.2117 16.0522 46.1356 16.0479 46.0595 16.0479C45.1964 16.0479 44.4471 16.6328 44.3319 17.4372Z" fill="#231F20"/>
<path d="M46.1619 18.2461C46.3303 18.4901 46.7516 18.3818 46.9104 17.866C47.0692 17.3501 46.6958 16.9711 46.4427 16.8989C46.7258 17.7628 45.8506 17.7972 46.1619 18.2461Z" fill="url(#paint17_linear_44_7459)"/>
</g>
</g>
<defs>
<radialGradient id="paint0_radial_44_7459" cx="0" cy="0" r="1" gradientUnits="userSpaceOnUse" gradientTransform="translate(28.5857 31.1666) scale(24.8657 22.741)">
<stop stop-color="#F8A084"/>
<stop offset="1" stop-color="#ED1C24"/>
</radialGradient>
<linearGradient id="paint1_linear_44_7459" x1="14.7684" y1="42.7814" x2="14.7041" y2="40.9902" gradientUnits="userSpaceOnUse">
<stop stop-color="#373638"/>
<stop offset="1" stop-color="#989A9D"/>
</linearGradient>
<linearGradient id="paint2_linear_44_7459" x1="26.7948" y1="47.6957" x2="26.7306" y2="45.9044" gradientUnits="userSpaceOnUse">
<stop stop-color="#373638"/>
<stop offset="1" stop-color="#989A9D"/>
</linearGradient>
<linearGradient id="paint3_linear_44_7459" x1="29.9088" y1="55.0346" x2="29.839" y2="53.0871" gradientUnits="userSpaceOnUse">
<stop stop-color="#373638"/>
<stop offset="1" stop-color="#989A9D"/>
</linearGradient>
<linearGradient id="paint4_linear_44_7459" x1="20.7493" y1="49.3714" x2="20.683" y2="47.5215" gradientUnits="userSpaceOnUse">
<stop stop-color="#373638"/>
<stop offset="1" stop-color="#989A9D"/>
</linearGradient>
<linearGradient id="paint5_linear_44_7459" x1="35.4589" y1="53.2421" x2="35.3926" y2="51.3917" gradientUnits="userSpaceOnUse">
<stop stop-color="#373638"/>
<stop offset="1" stop-color="#989A9D"/>
</linearGradient>
<linearGradient id="paint6_linear_44_7459" x1="20.9296" y1="41.3741" x2="20.8716" y2="39.7596" gradientUnits="userSpaceOnUse">
<stop stop-color="#373638"/>
<stop offset="1" stop-color="#989A9D"/>
</linearGradient>
<linearGradient id="paint7_linear_44_7459" x1="26.648" y1="40.1241" x2="26.5922" y2="38.5689" gradientUnits="userSpaceOnUse">
<stop stop-color="#373638"/>
<stop offset="1" stop-color="#989A9D"/>
</linearGradient>
<linearGradient id="paint8_linear_44_7459" x1="31.8388" y1="38.8829" x2="31.7853" y2="37.3868" gradientUnits="userSpaceOnUse">
<stop stop-color="#373638"/>
<stop offset="1" stop-color="#989A9D"/>
</linearGradient>
<linearGradient id="paint9_linear_44_7459" x1="32.3254" y1="46.0656" x2="32.2693" y2="44.5021" gradientUnits="userSpaceOnUse">
<stop stop-color="#373638"/>
<stop offset="1" stop-color="#989A9D"/>
</linearGradient>
<linearGradient id="paint10_linear_44_7459" x1="36.7511" y1="37.8179" x2="36.7047" y2="36.5231" gradientUnits="userSpaceOnUse">
<stop stop-color="#373638"/>
<stop offset="1" stop-color="#989A9D"/>
</linearGradient>
<linearGradient id="paint11_linear_44_7459" x1="37.4101" y1="44.5738" x2="37.3602" y2="43.1822" gradientUnits="userSpaceOnUse">
<stop stop-color="#373638"/>
<stop offset="1" stop-color="#989A9D"/>
</linearGradient>
<linearGradient id="paint12_linear_44_7459" x1="38.974" y1="10.6867" x2="29.2187" y2="18.0567" gradientUnits="userSpaceOnUse">
<stop stop-color="white"/>
<stop offset="1" stop-color="#D3D2D2"/>
</linearGradient>
<linearGradient id="paint13_linear_44_7459" x1="13.1093" y1="13.868" x2="16.5112" y2="1.92484" gradientUnits="userSpaceOnUse">
<stop stop-color="#007236"/>
<stop offset="1" stop-color="#D1D3D4"/>
</linearGradient>
<linearGradient id="paint14_linear_44_7459" x1="2.65248" y1="1.14724" x2="2.84888" y2="3.60802" gradientUnits="userSpaceOnUse">
<stop stop-color="white"/>
<stop offset="1" stop-color="#FFCB03"/>
</linearGradient>
<linearGradient id="paint15_linear_44_7459" x1="37.7507" y1="24.3317" x2="50.0746" y2="19.1651" gradientUnits="userSpaceOnUse">
<stop stop-color="#ED1C24"/>
<stop offset="1" stop-color="white"/>
</linearGradient>
<linearGradient id="paint16_linear_44_7459" x1="49.6126" y1="26.5647" x2="49.7685" y2="28.5182" gradientUnits="userSpaceOnUse">
<stop stop-color="white"/>
<stop offset="1" stop-color="#FFCB03"/>
</linearGradient>
<linearGradient id="paint17_linear_44_7459" x1="46.4258" y1="16.9573" x2="46.5816" y2="18.9103" gradientUnits="userSpaceOnUse">
<stop stop-color="white"/>
<stop offset="1" stop-color="#FFCB03"/>
</linearGradient>
<clipPath id="clip0_44_7459">
<rect width="51" height="62" fill="white"/>
</clipPath>
</defs>
</svg>
